<?xml version="1.0" encoding="utf-8"?>
<!-- Generator: Adobe Illustrator 24.0.0, SVG Export Plug-In . SVG Version: 6.00 Build 0)  -->
<svg version="1.1" id="Layer_1" xmlns="http://www.w3.org/2000/svg" xmlns:xlink="http://www.w3.org/1999/xlink" x="0px" y="0px"
	 viewBox="0 0 100 100" style="enable-background:new 0 0 100 100;" xml:space="preserve">
<style type="text/css">
	.st0{fill:#FFFFFF;}
</style>
<path class="st0" d="M65.4,30.4h-9.1c-2,0-4.7,1.1-6.1,2.5L31.6,51.5c-0.8,0.8-1.2,1.9-1.2,3s0.4,2.2,1.2,3l10.9,10.9
	c0.8,0.8,1.9,1.2,3,1.2s2.2-0.4,3-1.2l18.6-18.6c1.4-1.4,2.5-4.1,2.5-6.1v-9.1C69.6,32.3,67.7,30.4,65.4,30.4z M64.4,38
	c-0.3,0.3-0.7,0.5-1.2,0.5c-0.4,0-0.9-0.2-1.2-0.5s-0.5-0.7-0.5-1.2c0-0.4,0.2-0.9,0.5-1.2s0.7-0.5,1.2-0.5c0.4,0,0.8,0.2,1.2,0.5
	s0.5,0.7,0.5,1.2C64.9,37.3,64.7,37.7,64.4,38z"/>
</svg>
