<?xml version="1.0" encoding="utf-8"?>
<!-- Generator: Adobe Illustrator 24.0.0, SVG Export Plug-In . SVG Version: 6.00 Build 0)  -->
<svg version="1.1" id="_xB9_Ã_x5F_xBA_x5F_h_x5F_x5F_x5F_1"
	 xmlns="http://www.w3.org/2000/svg" xmlns:xlink="http://www.w3.org/1999/xlink" x="0px" y="0px" viewBox="0 0 70 70"
	 style="enable-background:new 0 0 70 70;" xml:space="preserve">
<style type="text/css">
	.st0{fill:#FFFFFF;}
</style>
<g>
	<g>
		<path class="st0" d="M23.8,33.2h-1.6c0.9-6.3,6.3-11.1,12.8-11.1c4.9,0,9.4,2.8,11.6,7.1c0.2,0.5,0.8,0.7,1.3,0.5
			c0.6-0.2,0.8-0.9,0.5-1.4C45.9,23.2,40.7,20,35,20c-7.7,0-14,5.8-14.9,13.2h-1.6c-0.3,0-0.4,0.3-0.3,0.5l2.7,4
			c0.1,0.2,0.4,0.2,0.5,0l2.7-4C24.2,33.5,24.1,33.2,23.8,33.2z"/>
	</g>
	<g>
		<path class="st0" d="M51.8,36.3l-2.7-4c-0.1-0.2-0.4-0.2-0.5,0l-2.7,4c-0.1,0.2,0,0.5,0.3,0.5l1.6,0c-0.9,6.3-6.3,11.1-12.8,11.1
			c-4.9,0-9.4-2.8-11.6-7.1c-0.2-0.5-0.8-0.7-1.3-0.5c-0.6,0.2-0.8,0.9-0.5,1.4C24.1,46.8,29.3,50,35,50c7.7,0,14-5.8,14.9-13.2
			l1.6,0C51.8,36.8,52,36.5,51.8,36.3z"/>
	</g>
	<g>
		<g>
			<path class="st0" d="M35,26c-5,0-9,4-9,9c0,5,4,9,9,9s9-4,9-9C44,30,40,26,35,26z M38.9,37.5L38.9,37.5c-0.2,0-0.3,0-0.4-0.1
				c-0.1-0.1-0.2-0.2-0.2-0.4l0-0.3c0-0.3,0-0.5-0.1-0.8c-0.2-1.2-0.6-2.2-1.4-3c-0.4-0.4-0.8-0.7-1.3-0.8V36c0,0.2-0.1,0.3-0.2,0.4
				c-0.1,0.1-0.3,0.1-0.5,0.1c-0.2-0.1-0.3-0.3-0.4-0.5v-3.8c-0.1,0-0.2,0.1-0.2,0.1c-0.5,0.2-1,0.6-1.4,1.1c-0.5,0.7-0.9,1.5-1,2.4
				c0,0.3-0.1,0.5-0.1,0.8c0,0.1,0,0.3,0,0.4V37c0,0,0,0.1,0,0.1c0,0.3-0.3,0.4-0.5,0.4c-0.3,0-0.5-0.2-0.5-0.5c0-0.2,0-0.4,0-0.6
				c0.1-0.8,0.2-1.5,0.5-2.1c0.4-1,0.9-1.7,1.6-2.3c0.5-0.5,1.1-0.8,1.8-0.9v-0.7c0-0.2,0.1-0.3,0.2-0.4c0.1-0.1,0.3-0.1,0.5,0
				c0.2,0.1,0.3,0.3,0.3,0.5v0.7l0.1,0c0.8,0.2,1.5,0.6,2.1,1.3c0.7,0.8,1.1,1.7,1.4,2.8c0.1,0.6,0.2,1.2,0.2,1.7
				C39.4,37.2,39.2,37.5,38.9,37.5z"/>
		</g>
	</g>
</g>
</svg>
