<svg width="100" height="30" viewBox="0 0 100 30" fill="none" xmlns="http://www.w3.org/2000/svg">
<path d="M17.0519 0C17.2349 1.67942 16.5753 3.33252 15.6097 4.54948C14.6029 5.74638 12.9902 6.66129 11.421 6.54348C11.2156 4.92923 12.0108 3.21095 12.9006 2.16319C13.9073 0.97256 15.6545 0.0614117 17.0519 0Z" fill="#111111"/>
<path d="M22.0488 9.26867C21.8648 9.37566 18.9925 11.0451 19.0244 14.4411C19.0602 18.5529 22.7333 19.9111 22.7766 19.9255C22.7556 20.0214 22.2017 21.8867 20.8257 23.7808C19.6759 25.4483 18.4693 27.0786 16.5567 27.1074C15.6465 27.1279 15.0319 26.8741 14.3915 26.6097C13.7237 26.3339 13.0278 26.0465 11.9391 26.0465C10.7848 26.0465 10.0579 26.3433 9.35698 26.6295C8.75088 26.877 8.16423 27.1165 7.3375 27.1493C5.51517 27.2153 4.12185 25.3691 2.93004 23.7172C0.548897 20.3439 -1.30558 14.2086 1.18065 10.0344C2.38606 7.98695 4.58299 6.6695 6.93075 6.63353C7.96476 6.61315 8.95668 6.99962 9.82623 7.3384C10.4913 7.5975 11.0847 7.82871 11.5706 7.82871C11.998 7.82871 12.5751 7.60666 13.2476 7.34789C14.3067 6.94038 15.6024 6.44182 16.9227 6.57599C17.8252 6.60117 20.3967 6.92124 22.0534 9.26604L22.0488 9.26867Z" fill="#111111"/>
<path d="M32.7228 6.17701C32.7377 5.88443 32.8044 5.61197 32.923 5.35962C33.0416 5.10362 33.201 4.88236 33.4012 4.69584C33.6014 4.50933 33.8424 4.36487 34.1241 4.26247C34.4059 4.15641 34.7173 4.10338 35.0583 4.10338C35.3994 4.10338 35.7126 4.15823 35.9981 4.26795C36.2835 4.37401 36.5301 4.51847 36.7377 4.70133C36.9453 4.88419 37.1065 5.09448 37.2214 5.3322C37.3364 5.56626 37.3938 5.81129 37.3938 6.06729C37.3938 6.3233 37.3456 6.54273 37.2492 6.72559C37.1529 6.90845 37.049 7.06022 36.9378 7.18091C36.8007 7.31623 36.6487 7.43143 36.4819 7.52651C36.6932 7.62526 36.8822 7.75326 37.049 7.91052C37.1936 8.04584 37.3252 8.22687 37.4439 8.45361C37.5625 8.6767 37.6218 8.94916 37.6218 9.271C37.6218 9.54163 37.5625 9.79764 37.4439 10.039C37.3252 10.2804 37.1566 10.4943 36.9378 10.6808C36.7228 10.8637 36.4615 11.0118 36.1538 11.1252C35.8461 11.2349 35.4995 11.2898 35.1139 11.2898C34.7432 11.2898 34.4096 11.2386 34.113 11.1362C33.8164 11.0301 33.5606 10.8838 33.3456 10.6973C33.1343 10.5071 32.9656 10.2859 32.8396 10.0335C32.7173 9.77752 32.6394 9.50323 32.6061 9.21065H33.6904C33.7497 9.52517 33.8998 9.79215 34.1408 10.0116C34.3855 10.2274 34.7099 10.3352 35.1139 10.3352C35.5699 10.3352 35.9202 10.2274 36.1649 10.0116C36.4133 9.79215 36.5375 9.52517 36.5375 9.21065C36.5375 8.89614 36.4133 8.63099 36.1649 8.41521C35.9202 8.19944 35.5699 8.09155 35.1139 8.09155H34.5467V7.13154H35.0583C35.4624 7.13154 35.7719 7.03462 35.987 6.84079C36.202 6.64696 36.3095 6.40741 36.3095 6.12215C36.3095 5.80763 36.2001 5.55163 35.9814 5.35414C35.7664 5.15665 35.4587 5.05791 35.0583 5.05791C34.6876 5.05791 34.3929 5.16031 34.1742 5.36511C33.9592 5.56991 33.835 5.84055 33.8016 6.17701H32.7228Z" fill="#111111"/>
<path d="M40.6913 6.12215C40.9879 6.12215 41.2585 6.16969 41.5032 6.26478C41.7515 6.35621 41.9628 6.48238 42.1371 6.6433C42.3113 6.80422 42.4466 6.99439 42.543 7.21382C42.6394 7.4296 42.6876 7.66549 42.6876 7.92149V11.2349H41.948L41.72 10.7302C41.6199 10.8363 41.5013 10.9295 41.3641 11.01C41.2418 11.0831 41.088 11.149 40.9026 11.2075C40.7173 11.2623 40.4948 11.2898 40.2353 11.2898C39.6644 11.2898 39.227 11.1508 38.923 10.8729C38.6227 10.5912 38.4726 10.2255 38.4726 9.77569C38.4726 9.51969 38.5208 9.28928 38.6172 9.08448C38.7173 8.87602 38.8859 8.70048 39.1232 8.55784C39.3642 8.41156 39.6885 8.29818 40.0963 8.21772C40.5078 8.13361 41.0287 8.09155 41.6589 8.09155V7.92149C41.6589 7.66549 41.5773 7.46068 41.4142 7.30708C41.2511 7.15348 41.0101 7.07668 40.6913 7.07668C40.3503 7.07668 40.1019 7.13702 39.9462 7.25771C39.7905 7.3784 39.6978 7.52469 39.6681 7.69657H38.645C38.6746 7.24674 38.8655 6.87188 39.2177 6.57199C39.5699 6.2721 40.0611 6.12215 40.6913 6.12215ZM40.2965 10.3901C40.7302 10.3901 41.0657 10.2804 41.303 10.061C41.5402 9.84152 41.6589 9.57455 41.6589 9.26003V8.98574C41.2029 8.98574 40.834 9.00768 40.5523 9.05157C40.2743 9.0918 40.0555 9.14848 39.8961 9.22163C39.7367 9.29111 39.6292 9.37889 39.5736 9.48494C39.5217 9.58735 39.4958 9.70255 39.4958 9.83055C39.4958 9.97318 39.5643 10.103 39.7015 10.22C39.8387 10.3334 40.037 10.3901 40.2965 10.3901Z" fill="#111111"/>
<path d="M47.4698 7.13154H45.0175V11.2349H43.9944V6.17701H47.4698V7.13154Z" fill="#111111"/>
<path d="M50.7117 6.12215C51.0527 6.12215 51.3715 6.18615 51.6681 6.31415C51.9647 6.44216 52.2242 6.62136 52.4466 6.85176C52.6727 7.07851 52.8488 7.34914 52.9749 7.66366C53.1009 7.97818 53.1639 8.32561 53.1639 8.70596C53.1639 9.08631 53.1009 9.43557 52.9749 9.75375C52.8488 10.0683 52.6727 10.3407 52.4466 10.5711C52.2242 10.7979 51.9647 10.9753 51.6681 11.1033C51.3715 11.2276 51.0527 11.2898 50.7117 11.2898C50.467 11.2898 50.2576 11.2623 50.0833 11.2075C49.9091 11.1526 49.7626 11.0868 49.644 11.01C49.5069 10.9259 49.3882 10.8326 49.2881 10.7302V13.0343H48.265V6.17701H49.0045L49.2325 6.68719C49.3326 6.58113 49.4494 6.48604 49.5829 6.40193C49.7052 6.3361 49.859 6.27392 50.0444 6.21541C50.2297 6.15324 50.4522 6.12215 50.7117 6.12215ZM50.6561 10.3352C50.8525 10.3352 51.0398 10.2968 51.2177 10.22C51.3956 10.1396 51.5532 10.0262 51.6904 9.87992C51.8275 9.73363 51.935 9.56175 52.0129 9.36426C52.0944 9.16677 52.1352 8.94734 52.1352 8.70596C52.1352 8.46459 52.0944 8.24515 52.0129 8.04767C51.935 7.85018 51.8275 7.67829 51.6904 7.532C51.5532 7.38571 51.3956 7.27417 51.2177 7.19737C51.0398 7.11691 50.8525 7.07668 50.6561 7.07668C50.4596 7.07668 50.2705 7.11691 50.0889 7.19737C49.9109 7.27417 49.7534 7.38571 49.6162 7.532C49.4828 7.67829 49.3753 7.85201 49.2937 8.05315C49.2158 8.25064 49.1769 8.46824 49.1769 8.70596C49.1769 8.94734 49.2158 9.16677 49.2937 9.36426C49.3753 9.56175 49.4828 9.73363 49.6162 9.87992C49.7534 10.0262 49.9109 10.1396 50.0889 10.22C50.2705 10.2968 50.4596 10.3352 50.6561 10.3352Z" fill="#111111"/>
<path d="M53.6755 6.17701H54.7599L56.1834 9.83055L57.6069 6.17701H58.6913L56.5226 11.5695C56.4077 11.8548 56.2946 12.0925 56.1834 12.2827C56.0759 12.4765 55.9573 12.632 55.8275 12.749C55.7015 12.8697 55.5606 12.9556 55.4049 13.0068C55.2492 13.0617 55.0731 13.0891 54.8766 13.0891C54.8321 13.0891 54.7895 13.0873 54.7487 13.0836C54.7117 13.08 54.6746 13.0745 54.6375 13.0672C54.6005 13.0599 54.5652 13.0489 54.5319 13.0343V12.1894C54.821 12.1894 55.0397 12.1291 55.188 12.0084C55.3363 11.8914 55.4401 11.7451 55.4994 11.5695L55.6718 11.0649L53.6755 6.17701Z" fill="#111111"/>
<path d="M62.2668 8.6511C62.3965 8.71693 62.5096 8.80288 62.606 8.90894C62.6913 9.00037 62.771 9.11374 62.8451 9.24905C62.923 9.38071 62.9619 9.53797 62.9619 9.72083C62.9619 10.1707 62.7969 10.5455 62.467 10.8454C62.1408 11.1417 61.6792 11.2898 61.0824 11.2898C60.4522 11.2898 59.9795 11.1435 59.6644 10.8509C59.3493 10.5583 59.1751 10.1432 59.1417 9.60563H60.1704C60.2001 9.82872 60.2872 10.0061 60.4318 10.1378C60.5763 10.2694 60.7932 10.3352 61.0824 10.3352C61.4012 10.3352 61.631 10.2767 61.7719 10.1597C61.9165 10.039 61.9888 9.89272 61.9888 9.72083C61.9888 9.54895 61.9165 9.40266 61.7719 9.28197C61.631 9.16128 61.4012 9.10094 61.0824 9.10094H60.6264V8.20127H61.0824C61.3715 8.20127 61.5754 8.14458 61.694 8.03121C61.8164 7.91418 61.8775 7.78435 61.8775 7.64172C61.8775 7.49909 61.8164 7.36926 61.694 7.25222C61.5717 7.13519 61.3678 7.07668 61.0824 7.07668C60.8229 7.07668 60.6227 7.13702 60.4818 7.25771C60.3409 7.3784 60.2557 7.52469 60.226 7.69657H59.2029C59.2325 7.21748 59.403 6.8353 59.7144 6.55004C60.0258 6.26478 60.4818 6.12215 61.0824 6.12215C61.3567 6.12215 61.6014 6.16238 61.8164 6.24284C62.0314 6.31964 62.2149 6.42753 62.3669 6.5665C62.5189 6.70547 62.6357 6.86639 62.7172 7.04925C62.8025 7.23211 62.8451 7.4296 62.8451 7.64172C62.8451 7.8136 62.8136 7.96355 62.7506 8.09155C62.6913 8.2159 62.6245 8.32013 62.5504 8.40424C62.4688 8.50299 62.3743 8.58527 62.2668 8.6511Z" fill="#111111"/>
<path d="M68.5448 6.17701V11.2349H67.5217V7.69657L65.0694 11.2349H64.0462V6.17701H65.0694V9.72083L67.5217 6.17701H68.5448Z" fill="#111111"/>
<path d="M69.3956 6.17701H73.605V7.13154H72.0147V11.2349H70.986V7.13154H69.3956V6.17701Z" fill="#111111"/>
<path d="M76.7413 7.86663C77.0008 7.86663 77.238 7.91052 77.453 7.99829C77.6718 8.08241 77.859 8.19944 78.0147 8.34938C78.1704 8.49933 78.2909 8.6767 78.3761 8.88151C78.4651 9.08631 78.5096 9.3094 78.5096 9.55077C78.5096 9.79215 78.4651 10.0152 78.3761 10.22C78.2909 10.4248 78.1704 10.6022 78.0147 10.7522C77.859 10.9021 77.6718 11.021 77.453 11.1087C77.238 11.1929 77.0008 11.2349 76.7413 11.2349H74.467V6.17701H75.4901V7.86663H76.7413ZM76.7413 10.2804C76.9378 10.2804 77.1101 10.2072 77.2584 10.061C77.4104 9.91467 77.4864 9.74461 77.4864 9.55077C77.4864 9.35694 77.4123 9.18688 77.264 9.0406C77.1157 8.89431 76.9415 8.82116 76.7413 8.82116H75.4901V10.2804H76.7413Z" fill="#111111"/>
<path d="M86.428 9.38071C86.3687 9.65135 86.2742 9.90369 86.1444 10.1378C86.0147 10.3682 85.8497 10.5693 85.6495 10.7412C85.453 10.9131 85.2269 11.0484 84.9711 11.1471C84.719 11.2422 84.4447 11.2898 84.1481 11.2898C83.8071 11.2898 83.4883 11.2276 83.1917 11.1033C82.8951 10.9753 82.6338 10.7979 82.4076 10.5711C82.1852 10.3407 82.011 10.0683 81.8849 9.75375C81.7626 9.43923 81.7014 9.08997 81.7014 8.70596C81.7014 8.32561 81.7626 7.97818 81.8849 7.66366C82.011 7.34914 82.1852 7.07851 82.4076 6.85176C82.6338 6.62136 82.8951 6.44216 83.1917 6.31415C83.4883 6.18615 83.8071 6.12215 84.1481 6.12215C84.4447 6.12215 84.719 6.17152 84.9711 6.27027C85.2269 6.36535 85.453 6.50067 85.6495 6.67622C85.8497 6.8481 86.0128 7.05108 86.1389 7.28514C86.2686 7.51554 86.365 7.76423 86.428 8.03121H85.3437C85.2584 7.74595 85.1175 7.51554 84.9211 7.34C84.7246 7.16445 84.4669 7.07668 84.1481 7.07668C83.9665 7.07668 83.7885 7.11691 83.6143 7.19737C83.4401 7.27417 83.2881 7.38571 83.1583 7.532C83.0286 7.67829 82.9229 7.85201 82.8414 8.05315C82.7635 8.25064 82.7246 8.46824 82.7246 8.70596C82.7246 8.94734 82.7635 9.16677 82.8414 9.36426C82.9229 9.56175 83.0286 9.73363 83.1583 9.87992C83.2881 10.0262 83.4401 10.1396 83.6143 10.22C83.7885 10.2968 83.9665 10.3352 84.1481 10.3352C84.4669 10.3352 84.7246 10.2475 84.9211 10.0719C85.1212 9.89638 85.2621 9.66598 85.3437 9.38071H86.428Z" fill="#111111"/>
<path d="M34.0718 27.151H32.2669L36.5986 15.9463H38.0338L42.3655 27.151H40.5606L39.5657 24.5713H35.0579L34.0718 27.151ZM38.9406 22.9732L37.3118 18.526L35.6918 22.9732H38.9406Z" fill="#111111"/>
<path d="M46.934 19.0558C47.474 19.0558 47.9788 19.1572 48.4484 19.3598C48.9179 19.5625 49.3288 19.8462 49.681 20.2111C50.039 20.5701 50.3179 20.9986 50.5174 21.4966C50.717 21.9945 50.8168 22.5446 50.8168 23.1469C50.8168 23.7491 50.717 24.3021 50.5174 24.8059C50.3179 25.3039 50.039 25.7352 49.681 26.1001C49.3288 26.4591 48.9179 26.7399 48.4484 26.9426C47.9788 27.1395 47.474 27.2379 46.934 27.2379C46.5466 27.2379 46.215 27.1945 45.9391 27.1076C45.6632 27.0208 45.4314 26.9165 45.2436 26.7949C45.0264 26.6617 44.8386 26.5141 44.6801 26.3519V30H43.0601V19.1427H44.2311L44.592 19.9505C44.7505 19.7825 44.9354 19.632 45.1467 19.4988C45.3404 19.3946 45.584 19.2961 45.8775 19.2035C46.171 19.1051 46.5231 19.0558 46.934 19.0558ZM46.846 25.7266C47.1571 25.7266 47.4535 25.6658 47.7352 25.5442C48.017 25.4168 48.2664 25.2373 48.4836 25.0056C48.7008 24.774 48.871 24.5019 48.9943 24.1892C49.1234 23.8765 49.188 23.529 49.188 23.1469C49.188 22.7647 49.1234 22.4173 48.9943 22.1046C48.871 21.7919 48.7008 21.5197 48.4836 21.2881C48.2664 21.0565 48.017 20.8799 47.7352 20.7583C47.4535 20.6309 47.1571 20.5672 46.846 20.5672C46.5349 20.5672 46.2355 20.6309 45.9479 20.7583C45.6662 20.8799 45.4167 21.0565 45.1995 21.2881C44.9882 21.5197 44.818 21.7948 44.6889 22.1133C44.5656 22.4259 44.504 22.7705 44.504 23.1469C44.504 23.529 44.5656 23.8765 44.6889 24.1892C44.818 24.5019 44.9882 24.774 45.1995 25.0056C45.4167 25.2373 45.6662 25.4168 45.9479 25.5442C46.2355 25.6658 46.5349 25.7266 46.846 25.7266Z" fill="#111111"/>
<path d="M56.028 19.0558C56.568 19.0558 57.0728 19.1572 57.5423 19.3598C58.0119 19.5625 58.4228 19.8462 58.775 20.2111C59.133 20.5701 59.4118 20.9986 59.6114 21.4966C59.8109 21.9945 59.9107 22.5446 59.9107 23.1469C59.9107 23.7491 59.8109 24.3021 59.6114 24.8059C59.4118 25.3039 59.133 25.7352 58.775 26.1001C58.4228 26.4591 58.0119 26.7399 57.5423 26.9426C57.0728 27.1395 56.568 27.2379 56.028 27.2379C55.6406 27.2379 55.3089 27.1945 55.0331 27.1076C54.7572 27.0208 54.5254 26.9165 54.3375 26.7949C54.1203 26.6617 53.9325 26.5141 53.774 26.3519V30H52.154V19.1427H53.325L53.686 19.9505C53.8445 19.7825 54.0294 19.632 54.2407 19.4988C54.4344 19.3946 54.678 19.2961 54.9714 19.2035C55.2649 19.1051 55.6171 19.0558 56.028 19.0558ZM55.9399 25.7266C56.251 25.7266 56.5474 25.6658 56.8292 25.5442C57.1109 25.4168 57.3604 25.2373 57.5776 25.0056C57.7947 24.774 57.965 24.5019 58.0882 24.1892C58.2173 23.8765 58.2819 23.529 58.2819 23.1469C58.2819 22.7647 58.2173 22.4173 58.0882 22.1046C57.965 21.7919 57.7947 21.5197 57.5776 21.2881C57.3604 21.0565 57.1109 20.8799 56.8292 20.7583C56.5474 20.6309 56.251 20.5672 55.9399 20.5672C55.6288 20.5672 55.3295 20.6309 55.0419 20.7583C54.7601 20.8799 54.5107 21.0565 54.2935 21.2881C54.0822 21.5197 53.912 21.7948 53.7828 22.1133C53.6596 22.4259 53.598 22.7705 53.598 23.1469C53.598 23.529 53.6596 23.8765 53.7828 24.1892C53.912 24.5019 54.0822 24.774 54.2935 25.0056C54.5107 25.2373 54.7601 25.4168 55.0419 25.5442C55.3295 25.6658 55.6288 25.7266 55.9399 25.7266Z" fill="#111111"/>
<path d="M64.4694 18.969C64.4694 18.5636 64.5574 18.1757 64.7335 17.8051C64.9155 17.4287 65.1737 17.0957 65.5083 16.8062C65.8487 16.5167 66.2508 16.2879 66.7145 16.12C67.1782 15.9463 67.6918 15.8594 68.2553 15.8594C68.7953 15.8594 69.2913 15.9492 69.7432 16.1287C70.1952 16.3024 70.5855 16.5485 70.9142 16.867C71.2429 17.1797 71.4983 17.5474 71.6802 17.9701C71.8622 18.387 71.9532 18.8387 71.9532 19.3251H70.2363C70.2363 18.746 70.0514 18.277 69.6816 17.918C69.3177 17.5532 68.8423 17.3708 68.2553 17.3708C67.9442 17.3708 67.6595 17.4142 67.4013 17.5011C67.143 17.5879 66.9229 17.7095 66.7409 17.8659C66.559 18.0222 66.4181 18.1959 66.3183 18.387C66.2244 18.5723 66.1775 18.7663 66.1775 18.969C66.1775 19.3627 66.3271 19.6667 66.6265 19.881C66.9317 20.0894 67.3044 20.2719 67.7446 20.4282C68.1907 20.5788 68.675 20.7293 69.1974 20.8799C69.7256 21.0304 70.2099 21.2331 70.6501 21.4879C71.0962 21.7427 71.4689 22.0785 71.7683 22.4954C72.0735 22.9066 72.2261 23.4509 72.2261 24.1284C72.2261 24.5337 72.1322 24.9217 71.9444 25.2923C71.7565 25.6629 71.4895 25.9958 71.1432 26.2911C70.8027 26.5807 70.3889 26.8123 69.9017 26.986C69.4145 27.1539 68.8657 27.2379 68.2553 27.2379C67.6449 27.2379 67.1019 27.1539 66.6265 26.986C66.151 26.8123 65.7431 26.5749 65.4027 26.2738C65.0681 25.9669 64.8128 25.6021 64.6367 25.1794C64.4665 24.7509 64.3813 24.2818 64.3813 23.7722H66.0894C66.0894 24.4034 66.2684 24.8869 66.6265 25.2228C66.9904 25.5586 67.5333 25.7266 68.2553 25.7266C69.0242 25.7266 69.5906 25.5731 69.9546 25.2662C70.3243 24.9593 70.5092 24.58 70.5092 24.1284C70.5092 23.7114 70.3596 23.3843 70.0602 23.1469C69.7609 22.9095 69.3881 22.7126 68.942 22.5562C68.4959 22.3941 68.0117 22.2377 67.4893 22.0872C66.9669 21.9308 66.4827 21.7311 66.0366 21.4879C65.5905 21.2447 65.2178 20.9291 64.9184 20.5411C64.6191 20.1474 64.4694 19.6233 64.4694 18.969Z" fill="#111111"/>
<path d="M75.8085 24.4845C75.8085 24.8377 75.9288 25.133 76.1695 25.3704C76.4101 25.6079 76.7095 25.7266 77.0675 25.7266C77.1262 25.7266 77.1878 25.7237 77.2524 25.7179C77.3228 25.7121 77.3874 25.7034 77.4461 25.6918C77.5048 25.6802 77.5606 25.6629 77.6134 25.6397V27.0642C77.543 27.0989 77.4578 27.1279 77.3581 27.151C77.1761 27.2089 76.9619 27.2379 76.7153 27.2379C76.3573 27.2379 76.0227 27.1742 75.7116 27.0468C75.4064 26.9136 75.1393 26.7283 74.9104 26.4909C74.6815 26.2535 74.5025 25.9669 74.3734 25.631C74.2501 25.2952 74.1885 24.913 74.1885 24.4845V20.654H72.7445V19.1427H73.3785C73.6895 19.1427 73.9478 19.0443 74.1532 18.8474C74.3587 18.6447 74.4614 18.3899 74.4614 18.083V17.0147H75.8085V19.1427H77.6134V20.654H75.8085V24.4845Z" fill="#111111"/>
<path d="M84.6295 23.1469C84.6295 22.7647 84.5649 22.4173 84.4358 22.1046C84.3125 21.7919 84.1482 21.5197 83.9427 21.2881C83.7373 21.0565 83.4967 20.8799 83.2208 20.7583C82.9449 20.6309 82.6632 20.5672 82.3756 20.5672C82.088 20.5672 81.8062 20.6309 81.5303 20.7583C81.2545 20.8799 81.0138 21.0565 80.8084 21.2881C80.6029 21.5197 80.4357 21.7948 80.3065 22.1133C80.1833 22.4259 80.1216 22.7705 80.1216 23.1469C80.1216 23.529 80.1833 23.8765 80.3065 24.1892C80.4357 24.5019 80.6029 24.774 80.8084 25.0056C81.0138 25.2373 81.2545 25.4168 81.5303 25.5442C81.8062 25.6658 82.088 25.7266 82.3756 25.7266C82.6632 25.7266 82.9449 25.6658 83.2208 25.5442C83.4967 25.4168 83.7373 25.2373 83.9427 25.0056C84.1482 24.774 84.3125 24.5019 84.4358 24.1892C84.5649 23.8765 84.6295 23.529 84.6295 23.1469ZM86.2495 23.1469C86.2495 23.7491 86.1497 24.3021 85.9502 24.8059C85.7565 25.3039 85.4806 25.7352 85.1225 26.1001C84.7704 26.4591 84.3595 26.7399 83.8899 26.9426C83.4204 27.1395 82.9156 27.2379 82.3756 27.2379C81.8356 27.2379 81.3308 27.1395 80.8612 26.9426C80.3916 26.7399 79.9778 26.4591 79.6198 26.1001C79.2676 25.7352 78.9917 25.3039 78.7922 24.8059C78.5985 24.3079 78.5016 23.7549 78.5016 23.1469C78.5016 22.5446 78.5985 21.9945 78.7922 21.4966C78.9917 20.9986 79.2676 20.5701 79.6198 20.2111C79.9778 19.8462 80.3916 19.5625 80.8612 19.3598C81.3308 19.1572 81.8356 19.0558 82.3756 19.0558C82.9156 19.0558 83.4204 19.1572 83.8899 19.3598C84.3595 19.5625 84.7704 19.8462 85.1225 20.2111C85.4806 20.5701 85.7565 20.9986 85.9502 21.4966C86.1497 21.9945 86.2495 22.5446 86.2495 23.1469Z" fill="#111111"/>
<path d="M91.1878 19.0558C91.2817 19.0558 91.358 19.0616 91.4167 19.0732C91.4813 19.0848 91.54 19.0964 91.5928 19.1079C91.6397 19.1195 91.6867 19.1311 91.7337 19.1427V20.7496C91.6867 20.738 91.6309 20.7264 91.5664 20.7148C91.5077 20.7032 91.446 20.6917 91.3815 20.6801C91.3169 20.6627 91.2523 20.654 91.1878 20.654C90.9119 20.654 90.6536 20.709 90.413 20.8191C90.1723 20.9233 89.961 21.0652 89.7791 21.2447C89.603 21.4242 89.4621 21.6326 89.3565 21.87C89.2567 22.1075 89.2068 22.3565 89.2068 22.617V27.151H87.5868V19.1427H88.7578L89.1187 19.9505C89.2655 19.7825 89.4386 19.632 89.6382 19.4988C89.8084 19.3946 90.0227 19.2961 90.2809 19.2035C90.5392 19.1051 90.8415 19.0558 91.1878 19.0558Z" fill="#111111"/>
<path d="M99.8239 24.8406C99.6889 25.1707 99.5187 25.4805 99.3133 25.77C99.1078 26.0595 98.8613 26.3143 98.5737 26.5343C98.2861 26.7544 97.9515 26.9281 97.57 27.0555C97.1943 27.1771 96.7717 27.2379 96.3021 27.2379C95.7621 27.2379 95.2573 27.1395 94.7878 26.9426C94.3182 26.7399 93.9073 26.4591 93.5552 26.1001C93.203 25.7352 92.9271 25.3039 92.7275 24.8059C92.528 24.3079 92.4282 23.7549 92.4282 23.1469C92.4282 22.5446 92.528 21.9945 92.7275 21.4966C92.9271 20.9986 93.1971 20.5701 93.5375 20.2111C93.878 19.8462 94.2801 19.5625 94.7438 19.3598C95.2075 19.1572 95.6976 19.0558 96.2141 19.0558C96.7306 19.0558 97.2207 19.1572 97.6844 19.3598C98.1481 19.5625 98.5502 19.8462 98.8906 20.2111C99.2311 20.5701 99.5011 20.9986 99.7007 21.4966C99.9002 21.9945 100 22.5446 100 23.1469C100 23.2395 99.9941 23.3322 99.9824 23.4248C99.9706 23.5117 99.9589 23.587 99.9472 23.6506C99.9354 23.7317 99.9237 23.8012 99.912 23.8591H94.1362C94.1597 24.1081 94.2331 24.3455 94.3564 24.5713C94.4796 24.7972 94.6322 24.997 94.8142 25.1707C95.002 25.3386 95.2251 25.4747 95.4833 25.5789C95.7416 25.6773 96.0145 25.7266 96.3021 25.7266C96.7952 25.7266 97.1855 25.6223 97.4731 25.4139C97.7666 25.2054 97.9779 25.0143 98.107 24.8406H99.8239ZM96.2141 20.5672C95.6741 20.5672 95.2163 20.7496 94.8406 21.1144C94.4708 21.4734 94.236 21.9453 94.1362 22.5302H98.468C98.3741 21.9511 98.1335 21.4792 97.7461 21.1144C97.3645 20.7496 96.8539 20.5672 96.2141 20.5672Z" fill="#111111"/>
</svg>
