<svg width="60" height="60" viewBox="0 0 60 60" fill="none" xmlns="http://www.w3.org/2000/svg">
<path d="M15 19.8519C15 18.8291 15.814 18 16.8182 18H43.1818C44.186 18 45 18.8291 45 19.8519V27.2593C45 28.282 44.186 29.1111 43.1818 29.1111H39.1862C38.6805 26.9433 38.0553 25.3859 37.6327 24.4815H40.9091C41.6622 24.4815 42.2727 23.8597 42.2727 23.0926C42.2727 22.3255 41.6622 21.7037 40.9091 21.7037H19.0909C18.3378 21.7037 17.7273 22.3255 17.7273 23.0926C17.7273 23.8597 18.3378 24.4815 19.0909 24.4815H22.3673C21.9447 25.3859 21.3195 26.9433 20.8138 29.1111H16.8182C15.814 29.1111 15 28.282 15 27.2593V19.8519Z" fill="white"/>
<path fill-rule="evenodd" clip-rule="evenodd" d="M35.0003 24.4815H25.0003C25.0003 24.4815 22.2731 27.7222 21.8185 33.7407C21.5053 37.8886 21.4079 39.7171 21.3776 41.0747C21.3662 41.5859 21.771 42 22.2731 42H37.7276C38.2297 42 38.6345 41.5859 38.6231 41.0747C38.5928 39.7171 38.4954 37.8886 38.1822 33.7407C37.7276 27.7222 35.0003 24.4815 35.0003 24.4815ZM33.0523 36.537C33.0523 33.7593 32.1432 32.7176 30.9744 32.4398V37.3704H29.0263V32.4398C27.8575 32.7176 26.9484 33.7593 26.9484 36.537V37.3704H25.0003V36.537C25.0003 32.4398 26.8835 30.912 29.0263 30.4259V29.037H30.9744V30.4259C33.1172 30.912 35.0003 32.4398 35.0003 36.537V37.3704H33.0523V36.537Z" fill="white"/>
</svg>
