<?xml version="1.0" encoding="utf-8"?>
<!-- Generator: Adobe Illustrator 24.0.0, SVG Export Plug-In . SVG Version: 6.00 Build 0)  -->
<svg version="1.1" id="Layer_1" xmlns="http://www.w3.org/2000/svg" xmlns:xlink="http://www.w3.org/1999/xlink" x="0px" y="0px"
	 viewBox="0 0 70 70" style="enable-background:new 0 0 70 70;" xml:space="preserve">
<style type="text/css">
	.st0{fill:#FFFFFF;}
</style>
<path class="st0" d="M27.5,20c-0.6,0-1.1,0.5-1.1,1.1v2.1h2.1v-2.1C28.6,20.5,28.1,20,27.5,20z"/>
<path class="st0" d="M42.5,20c-0.6,0-1.1,0.5-1.1,1.1v2.1h2.1v-2.1C43.6,20.5,43.1,20,42.5,20z"/>
<path class="st0" d="M46.8,23.2l-3.2,0v4.3c0,0.6-0.5,1.1-1.1,1.1c-0.6,0-1.1-0.5-1.1-1.1v-4.3H28.6l0,4.3c0,0.6-0.5,1.1-1.1,1.1
	c-0.6,0-1.1-0.5-1.1-1.1l0-4.3l-3.2,0c-1.8,0-3.2,1.4-3.2,3.2v20.4c0,1.8,1.4,3.2,3.2,3.2h23.6c1.8,0,3.2-1.4,3.2-3.2V26.4
	C50,24.7,48.6,23.2,46.8,23.2z M47.9,46.8c0,0.6-0.5,1.1-1.1,1.1H23.2c-0.6,0-1.1-0.5-1.1-1.1V32.9h25.7V46.8z"/>
<path class="st0" d="M26.4,38.7h-1.5c-0.3,0-0.6-0.3-0.6-0.6v-1.5c0-0.3,0.3-0.6,0.6-0.6h1.5c0.3,0,0.6,0.3,0.6,0.6v1.5
	C26.9,38.4,26.7,38.7,26.4,38.7z"/>
<path class="st0" d="M32.6,38.7h-1.5c-0.3,0-0.6-0.3-0.6-0.6v-1.5c0-0.3,0.3-0.6,0.6-0.6h1.5c0.3,0,0.6,0.3,0.6,0.6v1.5
	C33.2,38.4,32.9,38.7,32.6,38.7z"/>
<path class="st0" d="M38.9,38.7h-1.5c-0.3,0-0.6-0.3-0.6-0.6v-1.5c0-0.3,0.3-0.6,0.6-0.6h1.5c0.3,0,0.6,0.3,0.6,0.6v1.5
	C39.5,38.4,39.2,38.7,38.9,38.7z"/>
<path class="st0" d="M45.2,38.7h-1.5c-0.3,0-0.6-0.3-0.6-0.6v-1.5c0-0.3,0.3-0.6,0.6-0.6h1.5c0.3,0,0.6,0.3,0.6,0.6v1.5
	C45.7,38.4,45.5,38.7,45.2,38.7z"/>
<path class="st0" d="M26.4,44.7h-1.5c-0.3,0-0.6-0.3-0.6-0.6v-1.5c0-0.3,0.3-0.6,0.6-0.6h1.5c0.3,0,0.6,0.3,0.6,0.6v1.5
	C26.9,44.5,26.7,44.7,26.4,44.7z"/>
<path class="st0" d="M32.6,44.7h-1.5c-0.3,0-0.6-0.3-0.6-0.6v-1.5c0-0.3,0.3-0.6,0.6-0.6h1.5c0.3,0,0.6,0.3,0.6,0.6v1.5
	C33.2,44.5,32.9,44.7,32.6,44.7z"/>
<path class="st0" d="M38.9,44.7h-1.5c-0.3,0-0.6-0.3-0.6-0.6v-1.5c0-0.3,0.3-0.6,0.6-0.6h1.5c0.3,0,0.6,0.3,0.6,0.6v1.5
	C39.5,44.5,39.2,44.7,38.9,44.7z"/>
<path class="st0" d="M45.2,44.7h-1.5c-0.3,0-0.6-0.3-0.6-0.6v-1.5c0-0.3,0.3-0.6,0.6-0.6h1.5c0.3,0,0.6,0.3,0.6,0.6v1.5
	C45.7,44.5,45.5,44.7,45.2,44.7z"/>
<g>
	<text transform="matrix(1 0 0 1 540 540)" style="font-family:'MyriadPro-Regular'; font-size:12px;">/site/assets/files/1084/calendar.svg</text>
</g>
</svg>
