<svg width="70" height="70" viewBox="0 0 70 70" fill="none" xmlns="http://www.w3.org/2000/svg">
<path fill-rule="evenodd" clip-rule="evenodd" d="M32.4782 20.9557C33.4041 20.7726 34.3606 20.6767 35.3383 20.6767C36.3161 20.6767 37.2726 20.7726 38.1985 20.9557C38.8095 21.0766 39.2069 21.67 39.086 22.281C38.9651 22.892 38.3718 23.2894 37.7608 23.1685C36.9782 23.0137 36.1683 22.9323 35.3383 22.9323C34.5084 22.9323 33.6985 23.0137 32.9159 23.1685C32.3049 23.2894 31.7116 22.892 31.5907 22.281C31.4698 21.67 31.8671 21.0766 32.4782 20.9557ZM41.9208 23.4566C42.2673 22.9391 42.9678 22.8004 43.4854 23.1469C45.0838 24.217 46.4597 25.5929 47.5298 27.1913C47.8763 27.7089 47.7376 28.4094 47.22 28.7559C46.7025 29.1024 46.002 28.9638 45.6554 28.4462C44.7494 27.0928 43.5839 25.9273 42.2305 25.0213C41.7129 24.6747 41.5743 23.9742 41.9208 23.4566ZM22.281 31.5907C22.892 31.7116 23.2894 32.3049 23.1685 32.9159C23.0137 33.6985 22.9323 34.5084 22.9323 35.3383C22.9323 36.1683 23.0137 36.9782 23.1685 37.7608C23.2894 38.3718 22.892 38.9651 22.281 39.086C21.67 39.2069 21.0766 38.8095 20.9557 38.1985C20.7726 37.2726 20.6767 36.3161 20.6767 35.3383C20.6767 34.3606 20.7726 33.4041 20.9557 32.4782C21.0766 31.8671 21.67 31.4698 22.281 31.5907ZM48.3957 31.5907C49.0067 31.4698 49.6001 31.8671 49.721 32.4782C49.9041 33.4041 50 34.3606 50 35.3383C50 36.3161 49.9041 37.2726 49.721 38.1985C49.6001 38.8095 49.0067 39.2069 48.3957 39.086C47.7847 38.9651 47.3873 38.3718 47.5082 37.7608C47.663 36.9782 47.7444 36.1683 47.7444 35.3383C47.7444 34.5084 47.663 33.6985 47.5082 32.9159C47.3873 32.3049 47.7847 31.7116 48.3957 31.5907ZM23.4566 41.9208C23.9742 41.5743 24.6747 41.7129 25.0213 42.2305C25.9273 43.5839 27.0928 44.7494 28.4462 45.6554C28.9638 46.002 29.1024 46.7025 28.7559 47.22C28.4094 47.7376 27.7089 47.8763 27.1913 47.5298C25.5929 46.4597 24.217 45.0838 23.1469 43.4854C22.8004 42.9678 22.9391 42.2673 23.4566 41.9208ZM31.5907 48.3957C31.7116 47.7847 32.3049 47.3873 32.9159 47.5082C33.6985 47.663 34.5084 47.7444 35.3383 47.7444C36.1683 47.7444 36.9782 47.663 37.7608 47.5082C38.3718 47.3873 38.9651 47.7847 39.086 48.3957C39.2069 49.0067 38.8095 49.6001 38.1985 49.721C37.2726 49.9041 36.3161 50 35.3383 50C34.3606 50 33.4041 49.9041 32.4782 49.721C31.8671 49.6001 31.4698 49.0067 31.5907 48.3957Z" fill="white"/>
<path d="M26.4681 23.6842C27.7336 23.985 28.7179 25.1128 28.7179 28.1203V29.0226H30.8271V28.1203C30.8271 23.6842 28.7882 22.0301 26.4681 21.5038V20H24.3589V21.5038C22.0389 22.0301 20 23.6842 20 28.1203V29.0226H22.1092V28.1203C22.1092 25.1128 23.0934 23.985 24.3589 23.6842V29.0226H26.4681V23.6842Z" fill="white"/>
<path fill-rule="evenodd" clip-rule="evenodd" d="M44.3609 49.7744C47.3507 49.7744 49.7744 47.3507 49.7744 44.3609C49.7744 41.3711 47.3507 38.9474 44.3609 38.9474C41.3711 38.9474 38.9474 41.3711 38.9474 44.3609C38.9474 47.3507 41.3711 49.7744 44.3609 49.7744ZM47.5572 43.0236C47.8152 42.7533 47.8052 42.325 47.5349 42.0669C47.2646 41.8089 46.8362 41.8188 46.5782 42.0892L43.6227 45.1854L42.1436 43.6359C41.8856 43.3655 41.4572 43.3556 41.1869 43.6136C40.9166 43.8717 40.9066 44.3 41.1646 44.5704L43.6227 47.1455L47.5572 43.0236Z" fill="white"/>
</svg>
