<svg width="70" height="70" viewBox="0 0 70 70" fill="none" xmlns="http://www.w3.org/2000/svg">
<path fill-rule="evenodd" clip-rule="evenodd" d="M35 50C43.2843 50 50 43.2843 50 35C50 26.7157 43.2843 20 35 20C26.7157 20 20 26.7157 20 35C20 43.2843 26.7157 50 35 50ZM39.8831 38.7C39.8831 34.3667 38.4286 32.7417 36.5584 32.3083V40H33.4416V32.3083C31.5714 32.7417 30.1169 34.3667 30.1169 38.7V40H27V38.7C27 32.3083 30.013 29.925 33.4416 29.1667V27H36.5584V29.1667C39.987 29.925 43 32.3083 43 38.7V40H39.8831V38.7Z" fill="white"/>
</svg>
