<svg width="71" height="70" viewBox="0 0 71 70" fill="none" xmlns="http://www.w3.org/2000/svg">
<circle cx="35.4341" cy="35" r="35" fill="#5D5FEF"/>
<path fill-rule="evenodd" clip-rule="evenodd" d="M47.1446 37.3129L37.2061 31.8923C37.2369 31.314 37.5571 30.7793 38.0767 30.4871C39.7072 29.573 40.7187 27.8688 40.7187 26.0423C40.7187 23.2118 38.3483 20.9092 35.4346 20.9092C32.5209 20.9092 30.1505 23.2118 30.1505 26.0423C30.1505 26.9881 30.9383 27.7533 31.9119 27.7533C32.8855 27.7533 33.6732 26.9881 33.6732 26.0423C33.6732 25.0982 34.4645 24.3313 35.4346 24.3313C36.4047 24.3313 37.196 25.0982 37.196 26.0423C37.196 26.6523 36.8587 27.2203 36.3153 27.5262C34.712 28.4266 33.7212 30.0893 33.6869 31.8791L23.6344 37.3664C22.3067 38.195 21.3433 39.9094 21.3433 41.4416C21.3433 43.3281 22.9223 44.8637 24.866 44.8637H46.0024C47.9478 44.8637 49.5251 43.3281 49.5251 41.4416C49.5251 39.9094 48.5621 38.195 47.1446 37.3129ZM24.866 41.4416C24.866 41.0858 25.2306 40.4373 25.4508 40.297L35.4342 34.8482L45.3282 40.2435C45.6378 40.4356 46.0024 41.084 45.9988 41.4416H24.866Z" fill="white"/>
</svg>
