<svg width="116" height="30" viewBox="0 0 116 30" fill="none" xmlns="http://www.w3.org/2000/svg">
<path fill-rule="evenodd" clip-rule="evenodd" d="M0.756957 26.5361C0.298444 26.409 0 25.9406 0 25.2157V1.28873C0 0.617391 0.252697 0.164619 0.653271 0L12.0799 13.3342L0.756957 26.5361ZM2.32992 26.0282L16.084 18.0067L12.734 14.0974L2.32992 26.0282ZM16.1787 8.55522L2.61631 0.643618L12.7539 12.5484L16.1787 8.55522ZM17.0989 9.09202L22.412 12.1913C23.4179 12.7782 23.4271 13.7241 22.412 14.3162L16.9645 17.4932L13.4114 13.3206L17.0989 9.09202Z" fill="#111111"/>
<path d="M30.198 3.57046C30.2135 3.26032 30.2832 2.97151 30.407 2.70401C30.5308 2.43264 30.6973 2.1981 30.9062 2.00039C31.1152 1.80268 31.3668 1.64954 31.6609 1.541C31.955 1.42857 32.2801 1.37236 32.6362 1.37236C32.9922 1.37236 33.3192 1.43051 33.6172 1.54681C33.9152 1.65924 34.1726 1.81237 34.3893 2.0062C34.606 2.20004 34.7744 2.42295 34.8943 2.67494C35.0143 2.92305 35.0743 3.18279 35.0743 3.45416C35.0743 3.72553 35.024 3.95813 34.9234 4.15197C34.8227 4.3458 34.7144 4.50669 34.5983 4.63462C34.4551 4.77806 34.2964 4.90017 34.1223 5.00097C34.3428 5.10564 34.5402 5.24133 34.7144 5.40802C34.8653 5.55146 35.0027 5.74336 35.1265 5.98372C35.2504 6.2202 35.3123 6.50901 35.3123 6.85016C35.3123 7.13704 35.2504 7.40841 35.1265 7.66428C35.0027 7.92014 34.8266 8.14693 34.5983 8.34464C34.3738 8.53848 34.101 8.69548 33.7798 8.81566C33.4585 8.93196 33.0967 8.99011 32.6942 8.99011C32.3072 8.99011 31.9589 8.93584 31.6493 8.82729C31.3397 8.71487 31.0727 8.5598 30.8482 8.36209C30.6276 8.1605 30.4515 7.92595 30.3199 7.65846C30.1922 7.38709 30.1109 7.09634 30.0761 6.7862H31.2081C31.27 7.1196 31.4268 7.4026 31.6783 7.6352C31.9337 7.86393 32.2724 7.97829 32.6942 7.97829C33.1702 7.97829 33.5359 7.86393 33.7914 7.6352C34.0507 7.4026 34.1803 7.1196 34.1803 6.7862C34.1803 6.4528 34.0507 6.17174 33.7914 5.94301C33.5359 5.71429 33.1702 5.59992 32.6942 5.59992H32.1021V4.58228H32.6362C33.058 4.58228 33.3811 4.47955 33.6056 4.27408C33.8301 4.06862 33.9423 3.81469 33.9423 3.51231C33.9423 3.17891 33.8281 2.90754 33.5998 2.6982C33.3753 2.48885 33.0541 2.38418 32.6362 2.38418C32.2492 2.38418 31.9415 2.49273 31.7132 2.70983C31.4887 2.92692 31.359 3.2138 31.3242 3.57046H30.198Z" fill="#111111"/>
<path d="M38.5167 3.51231C38.8263 3.51231 39.1088 3.56271 39.3642 3.6635C39.6235 3.76042 39.8441 3.89417 40.026 4.06474C40.2079 4.23532 40.3492 4.43691 40.4498 4.66951C40.5504 4.89824 40.6007 5.14828 40.6007 5.41965V8.93196H39.8287L39.5906 8.39698C39.4861 8.5094 39.3623 8.60826 39.2191 8.69355C39.0914 8.77108 38.9308 8.84086 38.7373 8.90289C38.5438 8.96104 38.3116 8.99011 38.0407 8.99011C37.4447 8.99011 36.988 8.8428 36.6707 8.54817C36.3572 8.24966 36.2005 7.86199 36.2005 7.38515C36.2005 7.11378 36.2508 6.86955 36.3514 6.65245C36.4559 6.43148 36.632 6.2454 36.8797 6.0942C37.1312 5.93914 37.4699 5.81896 37.8956 5.73367C38.3251 5.64451 38.8689 5.59992 39.5268 5.59992V5.41965C39.5268 5.14828 39.4416 4.93119 39.2714 4.76837C39.1011 4.60554 38.8495 4.52413 38.5167 4.52413C38.1607 4.52413 37.9014 4.5881 37.7388 4.71603C37.5763 4.84396 37.4795 4.99903 37.4486 5.18124H36.3804C36.4114 4.7044 36.6107 4.30704 36.9784 3.98915C37.346 3.67125 37.8588 3.51231 38.5167 3.51231ZM38.1045 8.03644C38.5573 8.03644 38.9076 7.92014 39.1553 7.68754C39.4029 7.45493 39.5268 7.17193 39.5268 6.83853V6.54778C39.0508 6.54778 38.6657 6.57104 38.3716 6.61756C38.0813 6.66021 37.853 6.72029 37.6866 6.79783C37.5202 6.87149 37.4079 6.96453 37.3499 7.07695C37.2957 7.1855 37.2686 7.30762 37.2686 7.4433C37.2686 7.5945 37.3402 7.73212 37.4834 7.85617C37.6266 7.97635 37.8336 8.03644 38.1045 8.03644Z" fill="#111111"/>
<path d="M45.5931 4.58228H43.0331V8.93196H41.9649V3.57046H45.5931V4.58228Z" fill="#111111"/>
<path d="M48.9775 3.51231C49.3335 3.51231 49.6663 3.58015 49.9759 3.71584C50.2855 3.85152 50.5564 4.04148 50.7886 4.28571C51.0247 4.52607 51.2085 4.81295 51.3401 5.14635C51.4717 5.47974 51.5375 5.84803 51.5375 6.25121C51.5375 6.65439 51.4717 7.02462 51.3401 7.36189C51.2085 7.69529 51.0247 7.98411 50.7886 8.22834C50.5564 8.4687 50.2855 8.65672 49.9759 8.7924C49.6663 8.92421 49.3335 8.99011 48.9775 8.99011C48.722 8.99011 48.5034 8.96104 48.3215 8.90289C48.1396 8.84474 47.9867 8.77496 47.8629 8.69355C47.7197 8.60438 47.5958 8.50552 47.4914 8.39698V10.8393H46.4232V3.57046H47.1953L47.4333 4.11126C47.5378 3.99884 47.6597 3.89804 47.799 3.80888C47.9267 3.7391 48.0873 3.67319 48.2808 3.61117C48.4743 3.54526 48.7066 3.51231 48.9775 3.51231ZM48.9194 7.97829C49.1245 7.97829 49.32 7.93758 49.5057 7.85617C49.6915 7.77089 49.856 7.65071 49.9991 7.49564C50.1423 7.34057 50.2546 7.15836 50.3358 6.94902C50.421 6.73968 50.4636 6.50707 50.4636 6.25121C50.4636 5.99535 50.421 5.76274 50.3358 5.5534C50.2546 5.34406 50.1423 5.16185 49.9991 5.00678C49.856 4.85172 49.6915 4.73348 49.5057 4.65206C49.32 4.56678 49.1245 4.52413 48.9194 4.52413C48.7143 4.52413 48.5169 4.56678 48.3273 4.65206C48.1415 4.73348 47.977 4.85172 47.8339 5.00678C47.6945 5.16185 47.5823 5.346 47.4972 5.55922C47.4159 5.76856 47.3753 5.99922 47.3753 6.25121C47.3753 6.50707 47.4159 6.73968 47.4972 6.94902C47.5823 7.15836 47.6945 7.34057 47.8339 7.49564C47.977 7.65071 48.1415 7.77089 48.3273 7.85617C48.5169 7.93758 48.7143 7.97829 48.9194 7.97829Z" fill="#111111"/>
<path d="M52.0716 3.57046H53.2036L54.6897 7.4433L56.1758 3.57046H57.3077L55.0438 9.28668C54.9238 9.58907 54.8058 9.84105 54.6897 10.0426C54.5774 10.2481 54.4536 10.4129 54.3181 10.5369C54.1865 10.6649 54.0395 10.756 53.8769 10.8102C53.7144 10.8684 53.5306 10.8975 53.3255 10.8975C53.279 10.8975 53.2345 10.8955 53.1919 10.8916C53.1532 10.8878 53.1145 10.882 53.0758 10.8742C53.0371 10.8664 53.0004 10.8548 52.9655 10.8393V9.94379C53.2674 9.94379 53.4957 9.87982 53.6505 9.75189C53.8053 9.62784 53.9137 9.47277 53.9756 9.28668L54.1556 8.7517L52.0716 3.57046Z" fill="#111111"/>
<path d="M61.0404 6.19306C61.1759 6.26284 61.2939 6.35394 61.3945 6.46637C61.4835 6.56329 61.5667 6.68347 61.6441 6.8269C61.7254 6.96647 61.766 7.13317 61.766 7.327C61.766 7.80384 61.5938 8.2012 61.2494 8.51909C60.9088 8.83311 60.427 8.99011 59.8039 8.99011C59.146 8.99011 58.6526 8.83505 58.3236 8.52491C57.9947 8.21477 57.8128 7.77476 57.778 7.20488H58.8519C58.8829 7.44136 58.9738 7.62939 59.1247 7.76895C59.2757 7.90851 59.5021 7.97829 59.8039 7.97829C60.1368 7.97829 60.3767 7.91626 60.5238 7.79221C60.6747 7.66428 60.7502 7.50921 60.7502 7.327C60.7502 7.1448 60.6747 6.98973 60.5238 6.86179C60.3767 6.73386 60.1368 6.6699 59.8039 6.6699H59.3279V5.71622H59.8039C60.1058 5.71622 60.3186 5.65614 60.4425 5.53596C60.5702 5.4119 60.6341 5.27428 60.6341 5.12309C60.6341 4.97189 60.5702 4.83427 60.4425 4.71022C60.3148 4.58616 60.1019 4.52413 59.8039 4.52413C59.533 4.52413 59.324 4.5881 59.177 4.71603C59.0299 4.84396 58.9409 4.99903 58.9099 5.18124H57.8418C57.8728 4.67339 58.0508 4.26827 58.3759 3.96588C58.701 3.6635 59.177 3.51231 59.8039 3.51231C60.0903 3.51231 60.3457 3.55495 60.5702 3.64024C60.7947 3.72165 60.9862 3.83601 61.1449 3.98333C61.3036 4.13065 61.4255 4.30122 61.5106 4.49506C61.5996 4.68889 61.6441 4.89824 61.6441 5.12309C61.6441 5.30529 61.6112 5.46424 61.5455 5.59992C61.4835 5.73173 61.4139 5.84222 61.3365 5.93138C61.2513 6.03605 61.1526 6.12328 61.0404 6.19306Z" fill="#111111"/>
<path d="M67.5943 3.57046V8.93196H66.5262V5.18124L63.9662 8.93196H62.898V3.57046H63.9662V7.327L66.5262 3.57046H67.5943Z" fill="#111111"/>
<path d="M68.4825 3.57046H72.877V4.58228H71.2167V8.93196H70.1428V4.58228H68.4825V3.57046Z" fill="#111111"/>
<path d="M76.151 5.3615C76.4219 5.3615 76.6696 5.40802 76.8941 5.50107C77.1224 5.59023 77.3179 5.71429 77.4804 5.87323C77.6429 6.03218 77.7687 6.2202 77.8577 6.43729C77.9506 6.65439 77.997 6.89087 77.997 7.14673C77.997 7.4026 77.9506 7.63908 77.8577 7.85617C77.7687 8.07327 77.6429 8.26129 77.4804 8.42024C77.3179 8.57918 77.1224 8.70518 76.8941 8.79822C76.6696 8.88738 76.4219 8.93196 76.151 8.93196H73.7768V3.57046H74.8449V5.3615H76.151ZM76.151 7.92014C76.3561 7.92014 76.5361 7.84261 76.6909 7.68754C76.8496 7.53247 76.9289 7.3522 76.9289 7.14673C76.9289 6.94127 76.8515 6.761 76.6967 6.60593C76.5419 6.45086 76.36 6.37333 76.151 6.37333H74.8449V7.92014H76.151Z" fill="#111111"/>
<path d="M86.2635 6.96647C86.2016 7.25334 86.1029 7.52084 85.9674 7.76895C85.832 8.01318 85.6598 8.2264 85.4508 8.40861C85.2457 8.59081 85.0096 8.73425 84.7426 8.83892C84.4794 8.93972 84.193 8.99011 83.8834 8.99011C83.5274 8.99011 83.1945 8.92421 82.8849 8.7924C82.5753 8.65672 82.3025 8.4687 82.0664 8.22834C81.8342 7.98411 81.6523 7.69529 81.5207 7.36189C81.393 7.02849 81.3292 6.65827 81.3292 6.25121C81.3292 5.84803 81.393 5.47974 81.5207 5.14635C81.6523 4.81295 81.8342 4.52607 82.0664 4.28571C82.3025 4.04148 82.5753 3.85152 82.8849 3.71584C83.1945 3.58015 83.5274 3.51231 83.8834 3.51231C84.193 3.51231 84.4794 3.56464 84.7426 3.66932C85.0096 3.77011 85.2457 3.91355 85.4508 4.09963C85.6598 4.28184 85.83 4.497 85.9616 4.74511C86.0971 4.98934 86.1977 5.25296 86.2635 5.53596H85.1315C85.0425 5.23357 84.8954 4.98934 84.6903 4.80326C84.4852 4.61717 84.2162 4.52413 83.8834 4.52413C83.6938 4.52413 83.508 4.56678 83.3261 4.65206C83.1442 4.73348 82.9855 4.85172 82.8501 5.00678C82.7146 5.16185 82.6043 5.346 82.5192 5.55922C82.4379 5.76856 82.3973 5.99922 82.3973 6.25121C82.3973 6.50707 82.4379 6.73968 82.5192 6.94902C82.6043 7.15836 82.7146 7.34057 82.8501 7.49564C82.9855 7.65071 83.1442 7.77089 83.3261 7.85617C83.508 7.93758 83.6938 7.97829 83.8834 7.97829C84.2162 7.97829 84.4852 7.88525 84.6903 7.69917C84.8993 7.51308 85.0463 7.26885 85.1315 6.96647H86.2635Z" fill="#111111"/>
<path d="M36.0273 26.888C35.2736 26.888 34.5536 26.7345 33.8673 26.4276C33.1872 26.1207 32.5897 25.6941 32.075 25.1478C31.5603 24.6015 31.1497 23.9631 30.8434 23.2327C30.537 22.5023 30.3838 21.7104 30.3838 20.8572C30.3838 20.0163 30.537 19.2276 30.8434 18.491C31.1497 17.7544 31.5603 17.113 32.075 16.5667C32.5897 16.0204 33.1872 15.5938 33.8673 15.2869C34.5536 14.98 35.2736 14.8265 36.0273 14.8265C36.6768 14.8265 37.2834 14.937 37.8472 15.158C38.417 15.3728 38.9164 15.6644 39.3454 16.0327C39.7804 16.3948 40.1481 16.8153 40.4483 17.2941C40.7547 17.7728 40.9753 18.27 41.1101 18.7856H39.2259C39.1278 18.4848 38.9869 18.1902 38.8031 17.9017C38.6193 17.6071 38.3925 17.3554 38.1229 17.1467C37.8533 16.9319 37.5439 16.76 37.1946 16.6311C36.8453 16.4961 36.4562 16.4286 36.0273 16.4286C35.5371 16.4286 35.0591 16.5391 34.5934 16.76C34.1339 16.9749 33.7233 17.2818 33.3618 17.6808C33.0064 18.0736 32.7184 18.5401 32.4978 19.0802C32.2772 19.6204 32.1669 20.2127 32.1669 20.8572C32.1669 21.4956 32.2772 22.0849 32.4978 22.625C32.7184 23.1652 33.0064 23.6347 33.3618 24.0337C33.7233 24.4266 34.1339 24.7335 34.5934 24.9544C35.0591 25.1754 35.5371 25.2859 36.0273 25.2859C36.493 25.2859 36.9219 25.2092 37.3141 25.0557C37.7124 24.8961 38.0616 24.6844 38.3619 24.4204C38.6622 24.1565 38.9103 23.8496 39.1064 23.4997C39.3025 23.1437 39.4373 22.7662 39.5108 22.3672H35.9354V20.6639H41.202V26.7959H39.8877L39.4189 25.6634C39.1677 25.9028 38.8705 26.1115 38.5273 26.2895C38.2393 26.4429 37.8839 26.5811 37.4611 26.7038C37.0445 26.8266 36.5665 26.888 36.0273 26.888Z" fill="#111111"/>
<path d="M48.9953 22.5514C48.9953 22.1462 48.9279 21.778 48.793 21.4465C48.6644 21.115 48.4928 20.8265 48.2783 20.581C48.0639 20.3355 47.8126 20.1483 47.5246 20.0194C47.2366 19.8843 46.9425 19.8168 46.6423 19.8168C46.342 19.8168 46.0479 19.8843 45.7599 20.0194C45.4719 20.1483 45.2207 20.3355 45.0062 20.581C44.7917 20.8265 44.6171 21.1181 44.4823 21.4557C44.3536 21.7872 44.2893 22.1524 44.2893 22.5514C44.2893 22.9565 44.3536 23.3248 44.4823 23.6562C44.6171 23.9877 44.7917 24.2762 45.0062 24.5217C45.2207 24.7672 45.4719 24.9575 45.7599 25.0926C46.0479 25.2215 46.342 25.2859 46.6423 25.2859C46.9425 25.2859 47.2366 25.2215 47.5246 25.0926C47.8126 24.9575 48.0639 24.7672 48.2783 24.5217C48.4928 24.2762 48.6644 23.9877 48.793 23.6562C48.9279 23.3248 48.9953 22.9565 48.9953 22.5514ZM50.6865 22.5514C50.6865 23.1897 50.5823 23.7759 50.374 24.3099C50.1718 24.8378 49.8838 25.2951 49.51 25.6818C49.1423 26.0624 48.7134 26.3601 48.2232 26.5749C47.733 26.7836 47.206 26.888 46.6423 26.888C46.0785 26.888 45.5516 26.7836 45.0613 26.5749C44.5711 26.3601 44.1391 26.0624 43.7654 25.6818C43.3977 25.2951 43.1097 24.8378 42.9014 24.3099C42.6992 23.7821 42.5981 23.1959 42.5981 22.5514C42.5981 21.913 42.6992 21.3299 42.9014 20.802C43.1097 20.2741 43.3977 19.8199 43.7654 19.4393C44.1391 19.0526 44.5711 18.7519 45.0613 18.537C45.5516 18.3222 46.0785 18.2148 46.6423 18.2148C47.206 18.2148 47.733 18.3222 48.2232 18.537C48.7134 18.7519 49.1423 19.0526 49.51 19.4393C49.8838 19.8199 50.1718 20.2741 50.374 20.802C50.5823 21.3299 50.6865 21.913 50.6865 22.5514Z" fill="#111111"/>
<path d="M58.0109 22.5514C58.0109 22.1462 57.9435 21.778 57.8087 21.4465C57.68 21.115 57.5085 20.8265 57.294 20.581C57.0795 20.3355 56.8283 20.1483 56.5403 20.0194C56.2523 19.8843 55.9582 19.8168 55.6579 19.8168C55.3577 19.8168 55.0636 19.8843 54.7756 20.0194C54.4876 20.1483 54.2363 20.3355 54.0219 20.581C53.8074 20.8265 53.6328 21.1181 53.498 21.4557C53.3693 21.7872 53.305 22.1524 53.305 22.5514C53.305 22.9565 53.3693 23.3248 53.498 23.6562C53.6328 23.9877 53.8074 24.2762 54.0219 24.5217C54.2363 24.7672 54.4876 24.9575 54.7756 25.0926C55.0636 25.2215 55.3577 25.2859 55.6579 25.2859C55.9582 25.2859 56.2523 25.2215 56.5403 25.0926C56.8283 24.9575 57.0795 24.7672 57.294 24.5217C57.5085 24.2762 57.68 23.9877 57.8087 23.6562C57.9435 23.3248 58.0109 22.9565 58.0109 22.5514ZM59.7021 22.5514C59.7021 23.1897 59.598 23.7759 59.3896 24.3099C59.1874 24.8378 58.8994 25.2951 58.5257 25.6818C58.158 26.0624 57.7291 26.3601 57.2389 26.5749C56.7487 26.7836 56.2217 26.888 55.6579 26.888C55.0942 26.888 54.5672 26.7836 54.077 26.5749C53.5868 26.3601 53.1548 26.0624 52.781 25.6818C52.4134 25.2951 52.1254 24.8378 51.9171 24.3099C51.7148 23.7821 51.6137 23.1959 51.6137 22.5514C51.6137 21.913 51.7148 21.3299 51.9171 20.802C52.1254 20.2741 52.4134 19.8199 52.781 19.4393C53.1548 19.0526 53.5868 18.7519 54.077 18.537C54.5672 18.3222 55.0942 18.2148 55.6579 18.2148C56.2217 18.2148 56.7487 18.3222 57.2389 18.537C57.7291 18.7519 58.158 19.0526 58.5257 19.4393C58.8994 19.8199 59.1874 20.2741 59.3896 20.802C59.598 21.3299 59.7021 21.913 59.7021 22.5514Z" fill="#111111"/>
<path d="M68.534 18.3068V26.4184C68.534 26.934 68.4421 27.4097 68.2583 27.8455C68.0744 28.2875 67.8171 28.668 67.4862 28.9872C67.1553 29.3125 66.7509 29.5611 66.2729 29.733C65.795 29.911 65.2619 30 64.6736 30C64.1589 30 63.6932 29.9263 63.2765 29.779C62.866 29.6378 62.5075 29.4476 62.2011 29.2082C61.8948 28.9688 61.6405 28.6895 61.4383 28.3703C61.236 28.0511 61.092 27.7135 61.0063 27.3575H62.6975C62.8384 27.646 63.0621 27.9069 63.3684 28.1401C63.6748 28.3734 64.1099 28.49 64.6736 28.49C65.3415 28.49 65.8685 28.2967 66.2545 27.91C66.6467 27.5294 66.8428 27.0322 66.8428 26.4184V25.5713C66.6773 25.7493 66.4813 25.9059 66.2545 26.0409C66.0523 26.1637 65.8072 26.2741 65.5192 26.3724C65.2312 26.4644 64.8881 26.5105 64.4898 26.5105C63.9751 26.5105 63.4818 26.4061 63.01 26.1974C62.5382 25.9826 62.1245 25.691 61.7691 25.3227C61.4199 24.9483 61.1411 24.5094 60.9327 24.0061C60.7305 23.5028 60.6294 22.9565 60.6294 22.3672C60.6294 21.778 60.7305 21.2317 60.9327 20.7283C61.1411 20.225 61.4199 19.7892 61.7691 19.4209C62.1245 19.0465 62.5382 18.7519 63.01 18.537C63.4818 18.3222 63.9751 18.2148 64.4898 18.2148C64.9187 18.2148 65.2864 18.2669 65.5928 18.3713C65.8991 18.4695 66.1504 18.5739 66.3465 18.6843C66.5732 18.8255 66.7693 18.9851 66.9347 19.1631L67.3115 18.3068H68.534ZM64.692 24.9084C64.9923 24.9084 65.2833 24.844 65.5652 24.7151C65.8471 24.58 66.0952 24.3959 66.3097 24.1626C66.5241 23.9294 66.6957 23.6593 66.8244 23.3524C66.9592 23.0455 67.0266 22.7171 67.0266 22.3672C67.0266 22.0173 66.9592 21.689 66.8244 21.3821C66.6957 21.069 66.5241 20.7959 66.3097 20.5626C66.0952 20.3294 65.844 20.1483 65.556 20.0194C65.268 19.8843 64.9739 19.8168 64.6736 19.8168C64.3734 19.8168 64.0792 19.8843 63.7912 20.0194C63.5033 20.1483 63.252 20.3294 63.0376 20.5626C62.8231 20.7959 62.6484 21.0659 62.5136 21.3728C62.385 21.6798 62.3206 22.0112 62.3206 22.3672C62.3206 22.7171 62.385 23.0455 62.5136 23.3524C62.6484 23.6593 62.8261 23.9294 63.0467 24.1626C63.2673 24.3959 63.5186 24.58 63.8004 24.7151C64.0823 24.844 64.3795 24.9084 64.692 24.9084Z" fill="#111111"/>
<path d="M72.1727 26.7959H70.4815V14.9186H72.1727V26.7959Z" fill="#111111"/>
<path d="M81.4733 24.3468C81.3324 24.6966 81.1547 25.025 80.9402 25.3319C80.7258 25.6389 80.4684 25.9089 80.1681 26.1422C79.8679 26.3754 79.5186 26.5596 79.1203 26.6946C78.7282 26.8235 78.287 26.888 77.7968 26.888C77.233 26.888 76.7061 26.7836 76.2159 26.5749C75.7256 26.3601 75.2967 26.0624 74.9291 25.6818C74.5614 25.2951 74.2734 24.8378 74.0651 24.3099C73.8567 23.7821 73.7526 23.1959 73.7526 22.5514C73.7526 21.913 73.8567 21.3299 74.0651 20.802C74.2734 20.2741 74.5553 19.8199 74.9107 19.4393C75.2661 19.0526 75.6858 18.7519 76.1699 18.537C76.654 18.3222 77.1656 18.2148 77.7049 18.2148C78.2441 18.2148 78.7557 18.3222 79.2398 18.537C79.7239 18.7519 80.1436 19.0526 80.499 19.4393C80.8544 19.8199 81.1363 20.2741 81.3446 20.802C81.553 21.3299 81.6572 21.913 81.6572 22.5514C81.6572 22.6496 81.651 22.7478 81.6388 22.846C81.6265 22.9381 81.6143 23.0179 81.602 23.0854C81.5897 23.1713 81.5775 23.245 81.5652 23.3064H75.5357C75.5602 23.5703 75.6368 23.822 75.7655 24.0613C75.8942 24.3007 76.0535 24.5125 76.2434 24.6966C76.4395 24.8747 76.6724 25.0189 76.942 25.1294C77.2116 25.2337 77.4965 25.2859 77.7968 25.2859C78.3115 25.2859 78.719 25.1754 79.0192 24.9544C79.3256 24.7335 79.5462 24.5309 79.681 24.3468H81.4733ZM77.7049 19.8168C77.1411 19.8168 76.6632 20.0102 76.271 20.3969C75.885 20.7774 75.6399 21.2777 75.5357 21.8977H80.0579C79.9598 21.2838 79.7086 20.7836 79.3042 20.3969C78.9059 20.0102 78.3728 19.8168 77.7049 19.8168Z" fill="#111111"/>
<path d="M91.4071 14.9186C91.9218 14.9186 92.4059 15.0199 92.8593 15.2224C93.3189 15.4188 93.7172 15.6889 94.0542 16.0327C94.3973 16.3703 94.6669 16.7692 94.863 17.2296C95.0652 17.6838 95.1663 18.1687 95.1663 18.6843C95.1663 19.1999 95.0652 19.6879 94.863 20.1483C94.6669 20.6086 94.3973 21.0076 94.0542 21.3452C93.7172 21.6828 93.3189 21.9529 92.8593 22.1555C92.4059 22.358 91.9218 22.4593 91.4071 22.4593H88.8611V26.7959H87.0779V14.9186H91.4071ZM91.4071 20.7652C91.6706 20.7652 91.9187 20.713 92.1516 20.6086C92.3905 20.4982 92.6019 20.3478 92.7858 20.1575C92.9696 19.9672 93.1136 19.7462 93.2178 19.4946C93.3281 19.2429 93.3832 18.9728 93.3832 18.6843C93.3832 18.4081 93.3281 18.1442 93.2178 17.8925C93.1136 17.6409 92.9696 17.423 92.7858 17.2388C92.6019 17.0485 92.3905 16.8981 92.1516 16.7877C91.9187 16.671 91.6706 16.6127 91.4071 16.6127H88.8611V20.7652H91.4071Z" fill="#111111"/>
<path d="M98.3455 26.7959H96.6543V14.9186H98.3455V26.7959Z" fill="#111111"/>
<path d="M103.593 18.2148C104.083 18.2148 104.53 18.2946 104.935 18.4542C105.345 18.6076 105.694 18.8194 105.982 19.0895C106.27 19.3595 106.494 19.6787 106.653 20.047C106.813 20.4092 106.892 20.8051 106.892 21.2347V26.7959H105.67L105.293 25.9488C105.128 26.1268 104.932 26.2834 104.705 26.4184C104.503 26.5412 104.248 26.6516 103.942 26.7499C103.636 26.8419 103.268 26.888 102.839 26.888C101.895 26.888 101.172 26.6547 100.67 26.1882C100.174 25.7156 99.9253 25.1018 99.9253 24.3468C99.9253 23.9171 100.005 23.5304 100.164 23.1867C100.33 22.8368 100.609 22.5422 101.001 22.3028C101.399 22.0572 101.935 21.867 102.609 21.7319C103.289 21.5907 104.15 21.5202 105.192 21.5202V21.2347C105.192 20.8051 105.057 20.4613 104.788 20.2035C104.518 19.9457 104.12 19.8168 103.593 19.8168C103.029 19.8168 102.618 19.9181 102.361 20.1207C102.104 20.3232 101.951 20.5687 101.901 20.8572H100.21C100.259 20.1022 100.575 19.4731 101.157 18.9698C101.739 18.4664 102.551 18.2148 103.593 18.2148ZM102.94 25.378C103.657 25.378 104.212 25.1938 104.604 24.8255C104.996 24.4573 105.192 24.0092 105.192 23.4813V23.0209C104.438 23.0209 103.829 23.0578 103.363 23.1314C102.903 23.1989 102.542 23.2941 102.278 23.4168C102.015 23.5335 101.837 23.6808 101.745 23.8588C101.659 24.0307 101.617 24.224 101.617 24.4388C101.617 24.6782 101.73 24.8961 101.957 25.0926C102.183 25.2828 102.511 25.378 102.94 25.378Z" fill="#111111"/>
<path d="M107.709 18.3068H109.502L111.855 24.4388L114.208 18.3068H116L112.415 27.3575C112.225 27.8363 112.039 28.2353 111.855 28.5545C111.677 28.8798 111.481 29.1407 111.266 29.3371C111.058 29.5396 110.825 29.6839 110.568 29.7698C110.311 29.8619 110.019 29.9079 109.695 29.9079C109.621 29.9079 109.551 29.9049 109.483 29.8987C109.422 29.8926 109.361 29.8834 109.299 29.8711C109.238 29.8588 109.18 29.8404 109.125 29.8159V28.3979C109.603 28.3979 109.964 28.2967 110.209 28.0941C110.455 27.8977 110.626 27.6522 110.724 27.3575L111.009 26.5105L107.709 18.3068Z" fill="#111111"/>
</svg>
