<svg width="71" height="70" viewBox="0 0 71 70" fill="none" xmlns="http://www.w3.org/2000/svg">
<circle cx="35.8828" cy="35" r="35" fill="#6CC24A"/>
<path fill-rule="evenodd" clip-rule="evenodd" d="M30.7921 42.6363C29.3921 42.6363 28.2467 43.7818 28.2467 45.1818C28.2467 46.5818 29.3921 47.7273 30.7921 47.7273C32.1921 47.7273 33.3376 46.5818 33.3376 45.1818C33.3376 43.7818 32.1921 42.6363 30.7921 42.6363ZM23.1558 22.2727V24.8182H25.7012L30.283 34.4909L28.5012 37.5454C28.3739 37.9273 28.2467 38.4363 28.2467 38.8182C28.2467 40.2182 29.3921 41.3636 30.7921 41.3636H46.0649V38.8182H31.3012C31.1739 38.8182 31.0467 38.6909 31.0467 38.5636V38.4363L32.1921 36.2727H41.6103C42.6285 36.2727 43.3921 35.7636 43.7739 34.9999L48.3558 26.7273C48.6103 26.4727 48.6103 26.3454 48.6103 26.0909C48.6103 25.3273 48.1012 24.8182 47.3376 24.8182H28.5012L27.3558 22.2727H23.1558ZM43.5194 42.6363C42.1194 42.6363 40.974 43.7818 40.974 45.1818C40.974 46.5818 42.1194 47.7273 43.5194 47.7273C44.9194 47.7273 46.0649 46.5818 46.0649 45.1818C46.0649 43.7818 44.9194 42.6363 43.5194 42.6363Z" fill="white"/>
</svg>
