<svg width="70" height="70" viewBox="0 0 70 70" fill="none" xmlns="http://www.w3.org/2000/svg">
<g clip-path="url(#clip0)">
<path d="M48.2203 34.2721C47.8691 34.1193 47.6358 33.8113 47.5803 33.4271C47.5244 33.0399 47.6628 32.675 47.9601 32.4261C49.0015 31.5541 49.3187 30.1368 48.7493 28.8994C48.1853 27.6734 46.9164 26.9983 45.5907 27.2195C45.2185 27.2816 44.8619 27.1526 44.6123 26.8656C44.3554 26.5703 44.2757 26.1857 44.3935 25.8105C44.8025 24.5086 44.3067 23.1424 43.1601 22.4111C42.0259 21.6877 40.5956 21.8116 39.6006 22.7193C39.3193 22.9759 38.9497 23.0622 38.5863 22.956C38.2175 22.8481 37.948 22.5704 37.8471 22.1942C37.4949 20.8824 36.3508 20.001 35 20.001C33.6492 20.001 32.5051 20.8824 32.153 22.1942C32.052 22.5705 31.7825 22.8482 31.4136 22.956C31.0504 23.0622 30.6808 22.976 30.3994 22.7193C29.4044 21.8117 27.974 21.6879 26.84 22.4111C25.6933 23.1425 25.1976 24.5086 25.6065 25.8106C25.7243 26.1858 25.6446 26.5704 25.3877 26.8657C25.138 27.1527 24.7814 27.2818 24.4093 27.2196C23.0841 26.9985 21.8147 27.6736 21.2506 28.8994C20.6813 30.1369 20.9985 31.5541 22.0399 32.4262C22.3372 32.6751 22.4756 33.0399 22.4197 33.4272C22.3642 33.8114 22.1309 34.1194 21.7797 34.2722C20.5396 34.8117 19.8374 36.0779 20.0322 37.423C20.2263 38.7633 21.2549 39.7747 22.5916 39.9395C22.9679 39.9859 23.2756 40.2128 23.4357 40.5619C23.5993 40.9187 23.5685 41.3101 23.3512 41.6358C22.5948 42.7695 22.6886 44.2209 23.5846 45.2472C24.4698 46.2611 25.8762 46.5474 27.0843 45.9593C27.4241 45.794 27.8017 45.8161 28.1204 46.0201C28.4474 46.2294 28.6302 46.5746 28.622 46.9671C28.5934 48.3297 29.4486 49.5 30.7502 49.8793C31.0299 49.9608 31.3118 50.0002 31.589 50.0002C32.5933 50.0002 33.5359 49.4829 34.0863 48.5773C34.2864 48.2481 34.6194 48.0594 35 48.0594C35.3807 48.0594 35.7137 48.2482 35.9137 48.5773C36.6161 49.7329 37.957 50.2561 39.2498 49.8793C40.5514 49.5 41.4067 48.3297 41.378 46.9671C41.3698 46.5745 41.5526 46.2293 41.8796 46.02C42.1983 45.8161 42.5759 45.7939 42.9158 45.9593C44.1238 46.5473 45.5302 46.2611 46.4155 45.2471C47.3115 44.2208 47.4053 42.7694 46.6488 41.6357C46.4316 41.31 46.4008 40.9186 46.5643 40.5619C46.7244 40.2127 47.0321 39.9858 47.4085 39.9394C48.7452 39.7746 49.7737 38.7633 49.9679 37.4229C50.1626 36.0779 49.4603 34.8117 48.2203 34.2721V34.2721ZM32.1875 28.4382C33.2214 28.4382 34.0625 29.2793 34.0625 30.3132C34.0625 31.347 33.2214 32.1881 32.1875 32.1881C31.1537 32.1881 30.3126 31.347 30.3126 30.3132C30.3126 29.2793 31.1537 28.4382 32.1875 28.4382ZM37.8124 41.5629C36.7786 41.5629 35.9375 40.7218 35.9375 39.688C35.9375 38.6541 36.7786 37.813 37.8124 37.813C38.8463 37.813 39.6874 38.6541 39.6874 39.688C39.6874 40.7218 38.8462 41.5629 37.8124 41.5629ZM40.3502 30.9761L30.9754 40.3509C30.7924 40.534 30.5525 40.6255 30.3126 40.6255C30.0727 40.6255 29.8328 40.534 29.6497 40.3509C29.2836 39.9848 29.2836 39.3912 29.6497 39.0251L39.0245 29.6503C39.3906 29.2842 39.9842 29.2842 40.3503 29.6503C40.7164 30.0164 40.7164 30.61 40.3502 30.9761V30.9761Z" fill="white"/>
</g>
<defs>
<clipPath id="clip0">
<rect width="30" height="30" fill="white" transform="translate(20 20)"/>
</clipPath>
</defs>
</svg>
