<svg width="71" height="71" viewBox="0 0 71 71" fill="none" xmlns="http://www.w3.org/2000/svg">
<circle cx="35.1787" cy="35.4968" r="35" fill="#0072CE"/>
<path fill-rule="evenodd" clip-rule="evenodd" d="M44.19 25.9427H44.0521V25.3951C44.0521 23.9725 42.7576 22.8152 41.1663 22.8152H36.7086C35.1173 22.8152 33.8228 23.9725 33.8228 25.3951V25.9427H32.1088C31.8288 25.9427 31.5603 26.0421 31.3621 26.219L25.6389 31.3358C25.441 31.5129 25.3298 31.7529 25.3298 32.0033V46.792C25.3298 47.5566 26.0256 48.1788 26.881 48.1788H44.1902C45.0455 48.1788 45.7414 47.5568 45.7414 46.792V27.3294C45.7412 26.5647 45.0453 25.9427 44.19 25.9427ZM36.3207 25.1402C36.3207 24.681 36.684 24.3072 37.1303 24.3072H41.7916C42.2379 24.3072 42.6012 24.681 42.6012 25.1402V25.7991H36.3207V25.1402V25.1402ZM25.4279 30.0433L24.9349 29.7349C24.5022 29.3237 24.5022 28.6569 24.9349 28.2458C24.9349 28.2458 27.9406 25.3895 28.1485 25.1921C28.3564 24.9947 28.6381 24.8838 28.9322 24.8838C29.2261 24.8838 29.4251 25.1921 29.4251 25.1921C29.8579 25.6033 29.8579 26.2701 29.4251 26.6812L26.2116 29.7349C26.0035 29.9323 25.7218 30.0433 25.4279 30.0433Z" fill="white"/>
</svg>
