<svg width="316" height="316" viewBox="0 0 316 316" fill="none" xmlns="http://www.w3.org/2000/svg">
<path d="M296.8 0H19.2C12.4794 0 9.11905 0 6.55211 1.30792C4.29417 2.4584 2.4584 4.29417 1.30792 6.55211C0 9.11905 0 12.4794 0 19.2V296.8C0 303.521 0 306.881 1.30792 309.448C2.4584 311.706 4.29417 313.542 6.55211 314.692C9.11905 316 12.4794 316 19.2 316H296.8C303.521 316 306.881 316 309.448 314.692C311.706 313.542 313.542 311.706 314.692 309.448C316 306.881 316 303.521 316 296.8V19.2C316 12.4794 316 9.11905 314.692 6.55211C313.542 4.29417 311.706 2.4584 309.448 1.30792C306.881 0 303.521 0 296.8 0Z" fill="white"/>
<path d="M119.862 21.7931H108.966V32.6896H119.862V21.7931Z" fill="black"/>
<path d="M141.655 21.7931H130.759V32.6896H141.655V21.7931Z" fill="black"/>
<path d="M152.552 21.7931H141.655V32.6896H152.552V21.7931Z" fill="black"/>
<path d="M163.448 21.7931H152.552V32.6896H163.448V21.7931Z" fill="black"/>
<path d="M185.241 21.7931H174.345V32.6896H185.241V21.7931Z" fill="black"/>
<path d="M196.138 21.7931H185.241V32.6896H196.138V21.7931Z" fill="black"/>
<path d="M185.241 32.6896H174.345V43.5861H185.241V32.6896Z" fill="black"/>
<path d="M207.034 32.6896H196.138V43.5861H207.034V32.6896Z" fill="black"/>
<path d="M119.862 43.5862H108.966V54.4827H119.862V43.5862Z" fill="black"/>
<path d="M141.655 43.5862H130.759V54.4827H141.655V43.5862Z" fill="black"/>
<path d="M152.552 43.5862H141.655V54.4827H152.552V43.5862Z" fill="black"/>
<path d="M174.345 43.5862H163.448V54.4827H174.345V43.5862Z" fill="black"/>
<path d="M185.241 43.5862H174.345V54.4827H185.241V43.5862Z" fill="black"/>
<path d="M207.034 43.5862H196.138V54.4827H207.034V43.5862Z" fill="black"/>
<path d="M130.759 54.4828H119.862V65.3793H130.759V54.4828Z" fill="black"/>
<path d="M174.345 54.4828H163.448V65.3793H174.345V54.4828Z" fill="black"/>
<path d="M130.759 65.3793H119.862V76.2758H130.759V65.3793Z" fill="black"/>
<path d="M141.655 65.3793H130.759V76.2758H141.655V65.3793Z" fill="black"/>
<path d="M152.552 65.3793H141.655V76.2758H152.552V65.3793Z" fill="black"/>
<path d="M174.345 65.3793H163.448V76.2758H174.345V65.3793Z" fill="black"/>
<path d="M196.138 65.3793H185.241V76.2758H196.138V65.3793Z" fill="black"/>
<path d="M119.862 76.2759H108.966V87.1724H119.862V76.2759Z" fill="black"/>
<path d="M163.448 76.2759H152.552V87.1724H163.448V76.2759Z" fill="black"/>
<path d="M174.345 76.2759H163.448V87.1724H174.345V76.2759Z" fill="black"/>
<path d="M185.241 76.2759H174.345V87.1724H185.241V76.2759Z" fill="black"/>
<path d="M207.034 76.2759H196.138V87.1724H207.034V76.2759Z" fill="black"/>
<path d="M119.862 87.1724H108.966V98.0689H119.862V87.1724Z" fill="black"/>
<path d="M141.655 87.1724H130.759V98.0689H141.655V87.1724Z" fill="black"/>
<path d="M163.448 87.1724H152.552V98.0689H163.448V87.1724Z" fill="black"/>
<path d="M185.241 87.1724H174.345V98.0689H185.241V87.1724Z" fill="black"/>
<path d="M207.034 87.1724H196.138V98.0689H207.034V87.1724Z" fill="black"/>
<path d="M130.759 98.069H119.862V108.966H130.759V98.069Z" fill="black"/>
<path d="M141.655 98.069H130.759V108.966H141.655V98.069Z" fill="black"/>
<path d="M163.448 98.069H152.552V108.966H163.448V98.069Z" fill="black"/>
<path d="M185.241 98.069H174.345V108.966H185.241V98.069Z" fill="black"/>
<path d="M196.138 98.069H185.241V108.966H196.138V98.069Z" fill="black"/>
<path d="M32.6896 108.965H21.7931V119.862H32.6896V108.965Z" fill="black"/>
<path d="M54.4828 108.965H43.5862V119.862H54.4828V108.965Z" fill="black"/>
<path d="M98.069 108.965H87.1724V119.862H98.069V108.965Z" fill="black"/>
<path d="M108.966 108.965H98.069V119.862H108.966V108.965Z" fill="black"/>
<path d="M141.655 108.965H130.759V119.862H141.655V108.965Z" fill="black"/>
<path d="M196.138 108.965H185.241V119.862H196.138V108.965Z" fill="black"/>
<path d="M239.724 108.965H228.828V119.862H239.724V108.965Z" fill="black"/>
<path d="M272.414 108.965H261.517V119.862H272.414V108.965Z" fill="black"/>
<path d="M294.207 108.965H283.31V119.862H294.207V108.965Z" fill="black"/>
<path d="M32.6896 119.862H21.7931V130.759H32.6896V119.862Z" fill="black"/>
<path d="M43.5862 119.862H32.6897V130.759H43.5862V119.862Z" fill="black"/>
<path d="M54.4828 119.862H43.5862V130.759H54.4828V119.862Z" fill="black"/>
<path d="M65.3793 119.862H54.4828V130.759H65.3793V119.862Z" fill="black"/>
<path d="M76.2759 119.862H65.3793V130.759H76.2759V119.862Z" fill="black"/>
<path d="M87.1724 119.862H76.2759V130.759H87.1724V119.862Z" fill="black"/>
<path d="M108.966 119.862H98.069V130.759H108.966V119.862Z" fill="black"/>
<path d="M141.655 119.862H130.759V130.759H141.655V119.862Z" fill="black"/>
<path d="M163.448 119.862H152.552V130.759H163.448V119.862Z" fill="black"/>
<path d="M185.241 119.862H174.345V130.759H185.241V119.862Z" fill="black"/>
<path d="M196.138 119.862H185.241V130.759H196.138V119.862Z" fill="black"/>
<path d="M228.828 119.862H217.931V130.759H228.828V119.862Z" fill="black"/>
<path d="M239.724 119.862H228.828V130.759H239.724V119.862Z" fill="black"/>
<path d="M261.517 119.862H250.621V130.759H261.517V119.862Z" fill="black"/>
<path d="M283.31 119.862H272.414V130.759H283.31V119.862Z" fill="black"/>
<path d="M294.207 119.862H283.31V130.759H294.207V119.862Z" fill="black"/>
<path d="M32.6896 130.759H21.7931V141.655H32.6896V130.759Z" fill="black"/>
<path d="M43.5862 130.759H32.6897V141.655H43.5862V130.759Z" fill="black"/>
<path d="M54.4828 130.759H43.5862V141.655H54.4828V130.759Z" fill="black"/>
<path d="M98.069 130.759H87.1724V141.655H98.069V130.759Z" fill="black"/>
<path d="M108.966 130.759H98.069V141.655H108.966V130.759Z" fill="black"/>
<path d="M119.862 130.759H108.966V141.655H119.862V130.759Z" fill="black"/>
<path d="M196.138 130.759H185.241V141.655H196.138V130.759Z" fill="black"/>
<path d="M217.931 130.759H207.034V141.655H217.931V130.759Z" fill="black"/>
<path d="M239.724 130.759H228.828V141.655H239.724V130.759Z" fill="black"/>
<path d="M261.517 130.759H250.621V141.655H261.517V130.759Z" fill="black"/>
<path d="M272.414 130.759H261.517V141.655H272.414V130.759Z" fill="black"/>
<path d="M294.207 130.759H283.31V141.655H294.207V130.759Z" fill="black"/>
<path d="M43.5862 141.655H32.6897V152.552H43.5862V141.655Z" fill="black"/>
<path d="M65.3793 141.655H54.4828V152.552H65.3793V141.655Z" fill="black"/>
<path d="M87.1724 141.655H76.2759V152.552H87.1724V141.655Z" fill="black"/>
<path d="M119.862 141.655H108.966V152.552H119.862V141.655Z" fill="black"/>
<path d="M130.759 141.655H119.862V152.552H130.759V141.655Z" fill="black"/>
<path d="M196.138 141.655H185.241V152.552H196.138V141.655Z" fill="black"/>
<path d="M207.034 141.655H196.138V152.552H207.034V141.655Z" fill="black"/>
<path d="M217.931 141.655H207.034V152.552H217.931V141.655Z" fill="black"/>
<path d="M261.517 141.655H250.621V152.552H261.517V141.655Z" fill="black"/>
<path d="M43.5862 152.552H32.6897V163.448H43.5862V152.552Z" fill="black"/>
<path d="M54.4828 152.552H43.5862V163.448H54.4828V152.552Z" fill="black"/>
<path d="M87.1724 152.552H76.2759V163.448H87.1724V152.552Z" fill="black"/>
<path d="M98.069 152.552H87.1724V163.448H98.069V152.552Z" fill="black"/>
<path d="M108.966 152.552H98.069V163.448H108.966V152.552Z" fill="black"/>
<path d="M130.759 152.552H119.862V163.448H130.759V152.552Z" fill="black"/>
<path d="M141.655 152.552H130.759V163.448H141.655V152.552Z" fill="black"/>
<path d="M152.552 152.552H141.655V163.448H152.552V152.552Z" fill="black"/>
<path d="M207.034 152.552H196.138V163.448H207.034V152.552Z" fill="black"/>
<path d="M228.828 152.552H217.931V163.448H228.828V152.552Z" fill="black"/>
<path d="M239.724 152.552H228.828V163.448H239.724V152.552Z" fill="black"/>
<path d="M294.207 152.552H283.31V163.448H294.207V152.552Z" fill="black"/>
<path d="M43.5862 163.448H32.6897V174.345H43.5862V163.448Z" fill="black"/>
<path d="M65.3793 163.448H54.4828V174.345H65.3793V163.448Z" fill="black"/>
<path d="M108.966 163.448H98.069V174.345H108.966V163.448Z" fill="black"/>
<path d="M119.862 163.448H108.966V174.345H119.862V163.448Z" fill="black"/>
<path d="M130.759 163.448H119.862V174.345H130.759V163.448Z" fill="black"/>
<path d="M174.345 163.448H163.448V174.345H174.345V163.448Z" fill="black"/>
<path d="M196.138 163.448H185.241V174.345H196.138V163.448Z" fill="black"/>
<path d="M217.931 163.448H207.034V174.345H217.931V163.448Z" fill="black"/>
<path d="M228.828 163.448H217.931V174.345H228.828V163.448Z" fill="black"/>
<path d="M239.724 163.448H228.828V174.345H239.724V163.448Z" fill="black"/>
<path d="M283.31 163.448H272.414V174.345H283.31V163.448Z" fill="black"/>
<path d="M294.207 163.448H283.31V174.345H294.207V163.448Z" fill="black"/>
<path d="M32.6896 174.345H21.7931V185.241H32.6896V174.345Z" fill="black"/>
<path d="M43.5862 174.345H32.6897V185.241H43.5862V174.345Z" fill="black"/>
<path d="M54.4828 174.345H43.5862V185.241H54.4828V174.345Z" fill="black"/>
<path d="M65.3793 174.345H54.4828V185.241H65.3793V174.345Z" fill="black"/>
<path d="M76.2759 174.345H65.3793V185.241H76.2759V174.345Z" fill="black"/>
<path d="M87.1724 174.345H76.2759V185.241H87.1724V174.345Z" fill="black"/>
<path d="M98.069 174.345H87.1724V185.241H98.069V174.345Z" fill="black"/>
<path d="M108.966 174.345H98.069V185.241H108.966V174.345Z" fill="black"/>
<path d="M130.759 174.345H119.862V185.241H130.759V174.345Z" fill="black"/>
<path d="M141.655 174.345H130.759V185.241H141.655V174.345Z" fill="black"/>
<path d="M152.552 174.345H141.655V185.241H152.552V174.345Z" fill="black"/>
<path d="M185.241 174.345H174.345V185.241H185.241V174.345Z" fill="black"/>
<path d="M196.138 174.345H185.241V185.241H196.138V174.345Z" fill="black"/>
<path d="M228.828 174.345H217.931V185.241H228.828V174.345Z" fill="black"/>
<path d="M261.517 174.345H250.621V185.241H261.517V174.345Z" fill="black"/>
<path d="M272.414 174.345H261.517V185.241H272.414V174.345Z" fill="black"/>
<path d="M294.207 174.345H283.31V185.241H294.207V174.345Z" fill="black"/>
<path d="M76.2759 185.241H65.3793V196.138H76.2759V185.241Z" fill="black"/>
<path d="M87.1724 185.241H76.2759V196.138H87.1724V185.241Z" fill="black"/>
<path d="M119.862 185.241H108.966V196.138H119.862V185.241Z" fill="black"/>
<path d="M185.241 185.241H174.345V196.138H185.241V185.241Z" fill="black"/>
<path d="M239.724 185.241H228.828V196.138H239.724V185.241Z" fill="black"/>
<path d="M250.621 185.241H239.724V196.138H250.621V185.241Z" fill="black"/>
<path d="M261.517 185.241H250.621V196.138H261.517V185.241Z" fill="black"/>
<path d="M32.6896 196.138H21.7931V207.035H32.6896V196.138Z" fill="black"/>
<path d="M43.5862 196.138H32.6897V207.035H43.5862V196.138Z" fill="black"/>
<path d="M54.4828 196.138H43.5862V207.035H54.4828V196.138Z" fill="black"/>
<path d="M65.3793 196.138H54.4828V207.035H65.3793V196.138Z" fill="black"/>
<path d="M98.069 196.138H87.1724V207.035H98.069V196.138Z" fill="black"/>
<path d="M119.862 196.138H108.966V207.035H119.862V196.138Z" fill="black"/>
<path d="M130.759 196.138H119.862V207.035H130.759V196.138Z" fill="black"/>
<path d="M141.655 196.138H130.759V207.035H141.655V196.138Z" fill="black"/>
<path d="M152.552 196.138H141.655V207.035H152.552V196.138Z" fill="black"/>
<path d="M163.448 196.138H152.552V207.035H163.448V196.138Z" fill="black"/>
<path d="M207.034 196.138H196.138V207.035H207.034V196.138Z" fill="black"/>
<path d="M217.931 196.138H207.034V207.035H217.931V196.138Z" fill="black"/>
<path d="M228.828 196.138H217.931V207.035H228.828V196.138Z" fill="black"/>
<path d="M239.724 196.138H228.828V207.035H239.724V196.138Z" fill="black"/>
<path d="M250.621 196.138H239.724V207.035H250.621V196.138Z" fill="black"/>
<path d="M283.31 196.138H272.414V207.035H283.31V196.138Z" fill="black"/>
<path d="M119.862 207.034H108.966V217.931H119.862V207.034Z" fill="black"/>
<path d="M130.759 207.034H119.862V217.931H130.759V207.034Z" fill="black"/>
<path d="M163.448 207.034H152.552V217.931H163.448V207.034Z" fill="black"/>
<path d="M196.138 207.034H185.241V217.931H196.138V207.034Z" fill="black"/>
<path d="M207.034 207.034H196.138V217.931H207.034V207.034Z" fill="black"/>
<path d="M250.621 207.034H239.724V217.931H250.621V207.034Z" fill="black"/>
<path d="M294.207 207.034H283.31V217.931H294.207V207.034Z" fill="black"/>
<path d="M119.862 217.931H108.966V228.828H119.862V217.931Z" fill="black"/>
<path d="M163.448 217.931H152.552V228.828H163.448V217.931Z" fill="black"/>
<path d="M185.241 217.931H174.345V228.828H185.241V217.931Z" fill="black"/>
<path d="M207.034 217.931H196.138V228.828H207.034V217.931Z" fill="black"/>
<path d="M228.828 217.931H217.931V228.828H228.828V217.931Z" fill="black"/>
<path d="M250.621 217.931H239.724V228.828H250.621V217.931Z" fill="black"/>
<path d="M294.207 217.931H283.31V228.828H294.207V217.931Z" fill="black"/>
<path d="M141.655 228.828H130.759V239.724H141.655V228.828Z" fill="black"/>
<path d="M152.552 228.828H141.655V239.724H152.552V228.828Z" fill="black"/>
<path d="M163.448 228.828H152.552V239.724H163.448V228.828Z" fill="black"/>
<path d="M196.138 228.828H185.241V239.724H196.138V228.828Z" fill="black"/>
<path d="M207.034 228.828H196.138V239.724H207.034V228.828Z" fill="black"/>
<path d="M250.621 228.828H239.724V239.724H250.621V228.828Z" fill="black"/>
<path d="M294.207 228.828H283.31V239.724H294.207V228.828Z" fill="black"/>
<path d="M141.655 239.724H130.759V250.621H141.655V239.724Z" fill="black"/>
<path d="M174.345 239.724H163.448V250.621H174.345V239.724Z" fill="black"/>
<path d="M185.241 239.724H174.345V250.621H185.241V239.724Z" fill="black"/>
<path d="M196.138 239.724H185.241V250.621H196.138V239.724Z" fill="black"/>
<path d="M207.034 239.724H196.138V250.621H207.034V239.724Z" fill="black"/>
<path d="M217.931 239.724H207.034V250.621H217.931V239.724Z" fill="black"/>
<path d="M228.828 239.724H217.931V250.621H228.828V239.724Z" fill="black"/>
<path d="M239.724 239.724H228.828V250.621H239.724V239.724Z" fill="black"/>
<path d="M250.621 239.724H239.724V250.621H250.621V239.724Z" fill="black"/>
<path d="M294.207 239.724H283.31V250.621H294.207V239.724Z" fill="black"/>
<path d="M174.345 250.621H163.448V261.517H174.345V250.621Z" fill="black"/>
<path d="M250.621 250.621H239.724V261.517H250.621V250.621Z" fill="black"/>
<path d="M272.414 250.621H261.517V261.517H272.414V250.621Z" fill="black"/>
<path d="M283.31 250.621H272.414V261.517H283.31V250.621Z" fill="black"/>
<path d="M119.862 261.517H108.966V272.414H119.862V261.517Z" fill="black"/>
<path d="M152.552 261.517H141.655V272.414H152.552V261.517Z" fill="black"/>
<path d="M217.931 261.517H207.034V272.414H217.931V261.517Z" fill="black"/>
<path d="M239.724 261.517H228.828V272.414H239.724V261.517Z" fill="black"/>
<path d="M250.621 261.517H239.724V272.414H250.621V261.517Z" fill="black"/>
<path d="M261.517 261.517H250.621V272.414H261.517V261.517Z" fill="black"/>
<path d="M283.31 261.517H272.414V272.414H283.31V261.517Z" fill="black"/>
<path d="M294.207 261.517H283.31V272.414H294.207V261.517Z" fill="black"/>
<path d="M130.759 272.414H119.862V283.31H130.759V272.414Z" fill="black"/>
<path d="M141.655 272.414H130.759V283.31H141.655V272.414Z" fill="black"/>
<path d="M174.345 272.414H163.448V283.31H174.345V272.414Z" fill="black"/>
<path d="M207.034 272.414H196.138V283.31H207.034V272.414Z" fill="black"/>
<path d="M217.931 272.414H207.034V283.31H217.931V272.414Z" fill="black"/>
<path d="M228.828 272.414H217.931V283.31H228.828V272.414Z" fill="black"/>
<path d="M239.724 272.414H228.828V283.31H239.724V272.414Z" fill="black"/>
<path d="M250.621 272.414H239.724V283.31H250.621V272.414Z" fill="black"/>
<path d="M119.862 283.31H108.966V294.207H119.862V283.31Z" fill="black"/>
<path d="M152.552 283.31H141.655V294.207H152.552V283.31Z" fill="black"/>
<path d="M163.448 283.31H152.552V294.207H163.448V283.31Z" fill="black"/>
<path d="M174.345 283.31H163.448V294.207H174.345V283.31Z" fill="black"/>
<path d="M207.034 283.31H196.138V294.207H207.034V283.31Z" fill="black"/>
<path d="M217.931 283.31H207.034V294.207H217.931V283.31Z" fill="black"/>
<path d="M261.517 283.31H250.621V294.207H261.517V283.31Z" fill="black"/>
<path d="M294.207 283.31H283.31V294.207H294.207V283.31Z" fill="black"/>
<path d="M86.6276 21.7931H33.2345H21.7931V33.2345V86.6276V98.0689H33.2345H86.6276H98.069V86.6276V33.2345V21.7931H86.6276ZM86.6276 86.6276H33.2345V33.2345H86.6276V86.6276Z" fill="black"/>
<path d="M282.766 21.7931H229.372H217.931V33.2345V86.6276V98.0689H229.372H282.766H294.207V86.6276V33.2345V21.7931H282.766ZM282.766 86.6276H229.372V33.2345H282.766V86.6276Z" fill="black"/>
<path d="M86.6276 217.931H33.2345H21.7931V229.372V282.766V294.207H33.2345H86.6276H98.069V282.766V229.372V217.931H86.6276ZM86.6276 282.766H33.2345V229.372H86.6276V282.766Z" fill="black"/>
<path d="M76.2759 43.5862H43.5862V76.2758H76.2759V43.5862Z" fill="black"/>
<path d="M272.414 43.5862H239.724V76.2758H272.414V43.5862Z" fill="black"/>
<path d="M76.2759 239.724H43.5862V272.414H76.2759V239.724Z" fill="black"/>
</svg>
