<svg width="71" height="71" viewBox="0 0 71 71" fill="none" xmlns="http://www.w3.org/2000/svg">
<circle cx="35.1816" cy="35.1816" r="35" fill="#FF9100"/>
<path fill-rule="evenodd" clip-rule="evenodd" d="M37.0726 21.958C37.0726 21.479 37.4724 21.0906 37.9656 21.0906C38.4588 21.0906 38.8587 21.479 38.8587 21.958V28.0304H40.6448V21.958C40.6448 21.479 41.0446 21.0906 41.5378 21.0906C42.031 21.0906 42.4308 21.479 42.4308 21.958V28.0304H44.2169V21.958C44.2169 21.479 44.6168 21.0906 45.11 21.0906C45.6032 21.0906 46.003 21.479 46.003 21.958V32.3677C46.003 33.805 44.8035 34.9701 43.3239 34.9701H43.0262L43.9937 46.2473C44.0656 47.1444 43.6136 48.005 42.8236 48.4749C42.0336 48.9449 41.039 48.9449 40.249 48.4749C39.459 48.005 39.007 47.1444 39.079 46.2473L40.0494 34.9701H39.7517C38.2721 34.9701 37.0726 33.805 37.0726 32.3677V21.958ZM33.2903 28.0304C33.2903 24.199 31.2899 21.0906 28.8251 21.0906C26.3603 21.0906 24.3599 24.199 24.3599 28.0304C24.3599 31.0665 25.625 33.6227 27.3724 34.5624L26.3692 46.2473C26.2973 47.1444 26.7493 48.005 27.5393 48.4749C28.3293 48.9449 29.3238 48.9449 30.1138 48.4749C30.9038 48.005 31.3559 47.1444 31.2839 46.2473L30.2778 34.5624C32.0251 33.6227 33.2903 31.0665 33.2903 28.0304Z" fill="white"/>
</svg>
